999
dxfrw 0.6.3
  0
SECTION
  2
HEADER
  9
$ACADVER
  1
AC1021
  9
$DWGCODEPAGE
  3
ANSI_1252
  9
$INSBASE
 10
0
 20
0
 30
0
  9
$EXTMIN
 10
-10
 20
-150
 30
0
  9
$EXTMAX
 10
430
 20
10
 30
0
  9
$LIMMIN
 10
0
 20
0
  9
$LIMMAX
 10
420
 20
297
  9
$ORTHOMODE
 70
    0
  9
$REGENMODE
 70
    1
  9
$FILLMODE
 70
    1
  9
$QTEXTMODE
 70
    0
  9
$MIRRTEXT
 70
    0
  9
$LTSCALE
 40
1
  9
$ATTMODE
 70
    0
  9
$TEXTSIZE
 40
2.5
  9
$TRACEWID
 40
15.68
  9
$TEXTSTYLE
  7
STANDARD
  9
$CLAYER
  8
0
  9
$CELTYPE
  6
BYLAYER
  9
$CECOLOR
 62
  256
  9
$CELTSCALE
 40
1
  9
$DISPSILH
 70
    0
  9
$DIMSCALE
 40
1
  9
$DIMASZ
 40
2.5
  9
$DIMEXO
 40
0.625
  9
$DIMDLI
 40
3.75
  9
$DIMRND
 40
0
  9
$DIMDLE
 40
0
  9
$DIMEXE
 40
1.25
  9
$DIMTP
 40
0
  9
$DIMTM
 40
0
  9
$DIMTXT
 40
2.5
  9
$DIMCEN
 40
2.5
  9
$DIMTSZ
 40
0
  9
$DIMTOL
 70
    0
  9
$DIMLIM
 70
    0
  9
$DIMTIH
 70
    0
  9
$DIMTOH
 70
    0
  9
$DIMSE1
 70
    0
  9
$DIMSE2
 70
    0
  9
$DIMTAD
 70
    1
  9
$DIMZIN
 70
    8
  9
$DIMBLK
  1

  9
$DIMASO
 70
    1
  9
$DIMSHO
 70
    1
  9
$DIMPOST
  1

  9
$DIMAPOST
  1

  9
$DIMALT
 70
    0
  9
$DIMALTD
 70
    3
  9
$DIMALTF
 40
0.03937
  9
$DIMLFAC
 40
1
  9
$DIMTOFL
 70
    1
  9
$DIMTVP
 40
0
  9
$DIMTIX
 70
    0
  9
$DIMSOXD
 70
    0
  9
$DIMSAH
 70
    0
  9
$DIMBLK1
  1

  9
$DIMBLK2
  1

  9
$DIMSTYLE
  2
Standard
  9
$DIMCLRD
 70
    0
  9
$DIMCLRE
 70
    0
  9
$DIMCLRT
 70
    0
  9
$DIMTFAC
 40
1
  9
$DIMGAP
 40
0.625
  9
$DIMJUST
 70
    0
  9
$DIMSD1
 70
    0
  9
$DIMSD2
 70
    0
  9
$DIMTOLJ
 70
    0
  9
$DIMTZIN
 70
    8
  9
$DIMALTZ
 70
    0
  9
$DIMALTTZ
 70
    0
  9
$DIMUPT
 70
    0
  9
$DIMDEC
 70
    2
  9
$DIMTDEC
 70
    2
  9
$DIMALTU
 70
    2
  9
$DIMALTTD
 70
    3
  9
$DIMTXSTY
  7
STANDARD
  9
$DIMAUNIT
 70
    0
  9
$DIMADEC
 70
    0
  9
$DIMALTRND
 40
0
  9
$DIMAZIN
 70
    0
  9
$DIMDSEP
 70
   44
  9
$DIMATFIT
 70
    3
  9
$DIMFRAC
 70
    0
  9
$DIMLDRBLK
  1
STANDARD
  9
$DIMLUNIT
 70
    2
  9
$DIMLWD
 70
   -2
  9
$DIMLWE
 70
   -2
  9
$DIMTMOVE
 70
    0
  9
$DIMFXL
 40
1
  9
$DIMFXLON
 70
    0
  9
$DIMJOGANG
 40
0.7854
  9
$DIMTFILL
 70
    0
  9
$DIMTFILLCLR
 70
    0
  9
$DIMARCSYM
 70
    0
  9
$DIMLTYPE
  6

  9
$DIMLTEX1
  6

  9
$DIMLTEX2
  6

  9
$LUNITS
 70
    2
  9
$LUPREC
 70
    4
  9
$SKETCHINC
 40
1
  9
$FILLETRAD
 40
0
  9
$AUNITS
 70
    0
  9
$AUPREC
 70
    2
  9
$MENU
  1
.
  9
$ELEVATION
 40
0
  9
$PELEVATION
 40
0
  9
$THICKNESS
 40
0
  9
$LIMCHECK
 70
    0
  9
$CHAMFERA
 40
0
  9
$CHAMFERB
 40
0
  9
$CHAMFERC
 40
0
  9
$CHAMFERD
 40
0
  9
$SKPOLY
 70
    0
  9
$USRTIMER
 70
    1
  9
$ANGBASE
 50
0
  9
$ANGDIR
 70
    0
  9
$PDMODE
 70
   34
  9
$PDSIZE
 40
0
  9
$PLINEWID
 40
0
  9
$SPLFRAME
 70
    0
  9
$SPLINETYPE
 70
    2
  9
$SPLINESEGS
 70
    8
  9
$HANDSEED
  5
20000
  9
$SURFTAB1
 70
    6
  9
$SURFTAB2
 70
    6
  9
$SURFTYPE
 70
    6
  9
$SURFU
 70
    6
  9
$SURFV
 70
    6
  9
$UCSBASE
  2

  9
$UCSNAME
  2

  9
$UCSORG
 10
0
 20
0
 30
0
  9
$UCSXDIR
 10
1
 20
0
 30
0
  9
$UCSYDIR
 10
0
 20
1
 30
0
  9
$UCSORTHOREF
  2

  9
$UCSORTHOVIEW
 70
    0
  9
$UCSORGTOP
 10
0
 20
0
 30
0
  9
$UCSORGBOTTOM
 10
0
 20
0
 30
0
  9
$UCSORGLEFT
 10
0
 20
0
 30
0
  9
$UCSORGRIGHT
 10
0
 20
0
 30
0
  9
$UCSORGFRONT
 10
0
 20
0
 30
0
  9
$UCSORGBACK
 10
0
 20
0
 30
0
  9
$PUCSBASE
  2

  9
$PUCSNAME
  2

  9
$PUCSORG
 10
0
 20
0
 30
0
  9
$PUCSXDIR
 10
1
 20
0
 30
0
  9
$PUCSYDIR
 10
0
 20
1
 30
0
  9
$PUCSORTHOREF
  2

  9
$PUCSORTHOVIEW
 70
    0
  9
$PUCSORGTOP
 10
0
 20
0
 30
0
  9
$PUCSORGBOTTOM
 10
0
 20
0
 30
0
  9
$PUCSORGLEFT
 10
0
 20
0
 30
0
  9
$PUCSORGRIGHT
 10
0
 20
0
 30
0
  9
$PUCSORGFRONT
 10
0
 20
0
 30
0
  9
$PUCSORGBACK
 10
0
 20
0
 30
0
  9
$USERI1
 70
    0
  9
$USERI2
 70
    0
  9
$USERI3
 70
    0
  9
$USERI4
 70
    0
  9
$USERI5
 70
    0
  9
$USERR1
 40
0
  9
$USERR2
 40
0
  9
$USERR3
 40
0
  9
$USERR4
 40
0
  9
$USERR5
 40
0
  9
$WORLDVIEW
 70
    1
  9
$SHADEDGE
 70
    3
  9
$SHADEDIF
 70
   70
  9
$TILEMODE
 70
    1
  9
$MAXACTVP
 70
   64
  9
$PINSBASE
 10
0
 20
0
 30
0
  9
$PLIMCHECK
 70
    0
  9
$PEXTMIN
 10
0
 20
0
 30
0
  9
$PEXTMAX
 10
0
 20
0
 30
0
  9
$SNAPSTYLE
 70
    0
  9
$PLIMMIN
 10
0
 20
0
  9
$PLIMMAX
 10
210
 20
297
  9
$UNITMODE
 70
    0
  9
$VISRETAIN
 70
    1
  9
$PLINEGEN
 70
    0
  9
$PSLTSCALE
 70
    1
  9
$TREEDEPTH
 70
 3020
  9
$CMLSTYLE
  2
Standard
  9
$CMLJUST
 70
    0
  9
$CMLSCALE
 40
20
  9
$PROXYGRAPHICS
 70
    1
  9
$MEASUREMENT
 70
    1
  9
$CELWEIGHT
370
   -1
  9
$ENDCAPS
280
    0
  9
$JOINSTYLE
280
    0
  9
$LWDISPLAY
290
    0
  9
$INSUNITS
 70
    4
  9
$HYPERLINKBASE
  1

  9
$STYLESHEET
  1

  9
$XEDIT
290
    1
  9
$CEPSNTYPE
380
    0
  9
$PSTYLEMODE
290
    1
  9
$EXTNAMES
290
    1
  9
$PSVPSCALE
 40
1
  9
$OLESTARTUP
290
    0
  9
$SORTENTS
280
  127
  9
$INDEXCTL
280
    0
  9
$HIDETEXT
280
    1
  9
$XCLIPFRAME
290
    0
  9
$HALOGAP
280
    0
  9
$OBSCOLOR
 70
  257
  9
$OBSLTYPE
280
    0
  9
$INTERSECTIONDISPLAY
280
    0
  9
$INTERSECTIONCOLOR
 70
  257
  9
$DIMASSOC
280
    1
  9
$PROJECTNAME
  1

  9
$CAMERADISPLAY
290
    0
  9
$LENSLENGTH
 40
50
  9
$CAMERAHEIGHT
 40
0
  9
$STEPSPERSEC
 40
2
  9
$STEPSIZE
 40
50
  9
$3DDWFPREC
 40
2
  9
$PSOLWIDTH
 40
5
  9
$PSOLHEIGHT
 40
80
  9
$LOFTANG1
 40
1.570796326794897
  9
$LOFTANG2
 40
1.570796326794897
  9
$LOFTMAG1
 40
0
  9
$LOFTMAG2
 40
0
  9
$LOFTPARAM
 70
    7
  9
$LOFTNORMALS
280
    1
  9
$LATITUDE
 40
1
  9
$LONGITUDE
 40
1
  9
$NORTHDIRECTION
 40
0
  9
$TIMEZONE
 70
-8000
  9
$LIGHTGLYPHDISPLAY
280
    1
  9
$TILEMODELIGHTSYNCH
280
    1
  9
$SOLIDHIST
280
    1
  9
$SHOWHIST
280
    1
  9
$DWFFRAME
280
    2
  9
$DGNFRAME
280
    0
  9
$REALWORLDSCALE
290
    1
  9
$INTERFERECOLOR
 62
    1
  9
$CSHADOW
280
    0
  9
$SHADOWPLANELOCATION
 40
0
  0
ENDSEC
  0
SECTION
  2
CLASSES
  0
ENDSEC
  0
SECTION
  2
TABLES
  0
TABLE
  2
VPORT
  5
8
330
0
100
AcDbSymbolTable
 70
    1
  0
VPORT
  5
31
330
2
100
AcDbSymbolTableRecord
100
AcDbViewportTableRecord
  2
*ACTIVE
 70
    0
 10
0
 20
0
 11
1
 21
1
 12
495.6062747192627
 22
128.9681755775033
 13
0
 23
0
 14
10
 24
10
 15
10
 25
10
 16
0
 26
0
 36
1
 17
0
 27
0
 37
0
 40
537.9815324090138
 41
2.525114155251142
 42
50
 43
0
 44
0
 50
0
 51
0
 71
    0
 72
  100
 73
    1
 74
    3
 75
    0
 76
    1
 77
    0
 78
    0
281
    0
 65
    1
110
0
120
0
130
0
111
1
121
0
131
0
112
0
122
1
132
0
 79
    0
146
0
348
10020
 60
    7
 61
    5
292
1
282
    1
141
0
142
0
 63
  250
421
3358443
  0
ENDTAB
  0
TABLE
  2
LTYPE
  5
5
330
0
100
AcDbSymbolTable
 70
    4
  0
LTYPE
  5
14
330
5
100
AcDbSymbolTableRecord
100
AcDbLinetypeTableRecord
  2
ByBlock
 70
    0
  3

 72
   65
 73
    0
 40
0
  0
LTYPE
  5
15
330
5
100
AcDbSymbolTableRecord
100
AcDbLinetypeTableRecord
  2
ByLayer
 70
    0
  3

 72
   65
 73
    0
 40
0
  0
LTYPE
  5
16
330
5
100
AcDbSymbolTableRecord
100
AcDbLinetypeTableRecord
  2
Continuous
 70
    0
  3
Solid line
 72
   65
 73
    0
 40
0
  0
LTYPE
  5
32
330
5
100
AcDbSymbolTableRecord
100
AcDbLinetypeTableRecord
  2
DOT
 70
    0
  3
Dot . . . . . . . . . . . . . . . . . . . . . .
 72
   65
 73
    2
 40
6.35
 49
0
 74
    0
 49
-6.35
 74
    0
  0
LTYPE
  5
33
330
5
100
AcDbSymbolTableRecord
100
AcDbLinetypeTableRecord
  2
DOTTINY
 70
    0
  3
Dot (.15x) .....................................
 72
   65
 73
    2
 40
0.9525
 49
0
 74
    0
 49
-0.9525
 74
    0
  0
LTYPE
  5
34
330
5
100
AcDbSymbolTableRecord
100
AcDbLinetypeTableRecord
  2
DOT2
 70
    0
  3
Dot (.5x) .....................................
 72
   65
 73
    2
 40
3.175
 49
0
 74
    0
 49
-3.175
 74
    0
  0
LTYPE
  5
35
330
5
100
AcDbSymbolTableRecord
100
AcDbLinetypeTableRecord
  2
DOTX2
 70
    0
  3
Dot (2x) .  .  .  .  .  .  .  .  .  .  .  .  .
 72
   65
 73
    2
 40
12.7
 49
0
 74
    0
 49
-12.7
 74
    0
  0
LTYPE
  5
36
330
5
100
AcDbSymbolTableRecord
100
AcDbLinetypeTableRecord
  2
DASHED
 70
    0
  3
Dashed _ _ _ _ _ _ _ _ _ _ _ _ _ _ _ _ _
 72
   65
 73
    2
 40
19.05
 49
12.7
 74
    0
 49
-6.35
 74
    0
  0
LTYPE
  5
37
330
5
100
AcDbSymbolTableRecord
100
AcDbLinetypeTableRecord
  2
DASHEDTINY
 70
    0
  3
Dashed (.15x) _ _ _ _ _ _ _ _ _ _ _ _ _ _ _ _ _
 72
   65
 73
    2
 40
2.8575
 49
1.905
 74
    0
 49
-0.9525
 74
    0
  0
LTYPE
  5
38
330
5
100
AcDbSymbolTableRecord
100
AcDbLinetypeTableRecord
  2
DASHED2
 70
    0
  3
Dashed (.5x) _ _ _ _ _ _ _ _ _ _ _ _ _ _ _ _ _
 72
   65
 73
    2
 40
9.524999999999999
 49
6.35
 74
    0
 49
-3.175
 74
    0
  0
LTYPE
  5
39
330
5
100
AcDbSymbolTableRecord
100
AcDbLinetypeTableRecord
  2
DASHEDX2
 70
    0
  3
Dashed (2x) ____  ____  ____  ____  ____  ___
 72
   65
 73
    2
 40
38.09999999999999
 49
25.4
 74
    0
 49
-12.7
 74
    0
  0
LTYPE
  5
3A
330
5
100
AcDbSymbolTableRecord
100
AcDbLinetypeTableRecord
  2
DASHDOT
 70
    0
  3
Dash dot __ . __ . __ . __ . __ . __ . __ . __
 72
   65
 73
    4
 40
25.4
 49
12.7
 74
    0
 49
-6.35
 74
    0
 49
0
 74
    0
 49
-6.35
 74
    0
  0
LTYPE
  5
3B
330
5
100
AcDbSymbolTableRecord
100
AcDbLinetypeTableRecord
  2
DASHDOTTINY
 70
    0
  3
Dash dot (.15x) _._._._._._._._._._._._._._._.
 72
   65
 73
    4
 40
3.81
 49
1.905
 74
    0
 49
-0.9525
 74
    0
 49
0
 74
    0
 49
-0.9525
 74
    0
  0
LTYPE
  5
3C
330
5
100
AcDbSymbolTableRecord
100
AcDbLinetypeTableRecord
  2
DASHDOT2
 70
    0
  3
Dash dot (.5x) _._._._._._._._._._._._._._._.
 72
   65
 73
    4
 40
12.7
 49
6.35
 74
    0
 49
-3.175
 74
    0
 49
0
 74
    0
 49
-3.175
 74
    0
  0
LTYPE
  5
3D
330
5
100
AcDbSymbolTableRecord
100
AcDbLinetypeTableRecord
  2
DASHDOTX2
 70
    0
  3
Dash dot (2x) ____  .  ____  .  ____  .  ___
 72
   65
 73
    4
 40
50.8
 49
25.4
 74
    0
 49
-12.7
 74
    0
 49
0
 74
    0
 49
-12.7
 74
    0
  0
LTYPE
  5
3E
330
5
100
AcDbSymbolTableRecord
100
AcDbLinetypeTableRecord
  2
DIVIDE
 70
    0
  3
Divide ____ . . ____ . . ____ . . ____ . . ____
 72
   65
 73
    6
 40
31.75
 49
12.7
 74
    0
 49
-6.35
 74
    0
 49
0
 74
    0
 49
-6.35
 74
    0
 49
0
 74
    0
 49
-6.35
 74
    0
  0
LTYPE
  5
3F
330
5
100
AcDbSymbolTableRecord
100
AcDbLinetypeTableRecord
  2
DIVIDETINY
 70
    0
  3
Divide (.15x) __..__..__..__..__..__..__..__.._
 72
   65
 73
    6
 40
4.7625
 49
1.905
 74
    0
 49
-0.9525
 74
    0
 49
0
 74
    0
 49
-0.9525
 74
    0
 49
0
 74
    0
 49
-0.9525
 74
    0
  0
LTYPE
  5
40
330
5
100
AcDbSymbolTableRecord
100
AcDbLinetypeTableRecord
  2
DIVIDE2
 70
    0
  3
Divide (.5x) __..__..__..__..__..__..__..__.._
 72
   65
 73
    6
 40
15.875
 49
6.35
 74
    0
 49
-3.175
 74
    0
 49
0
 74
    0
 49
-3.175
 74
    0
 49
0
 74
    0
 49
-3.175
 74
    0
  0
LTYPE
  5
41
330
5
100
AcDbSymbolTableRecord
100
AcDbLinetypeTableRecord
  2
DIVIDEX2
 70
    0
  3
Divide (2x) ________  .  .  ________  .  .  _
 72
   65
 73
    6
 40
63.5
 49
25.4
 74
    0
 49
-12.7
 74
    0
 49
0
 74
    0
 49
-12.7
 74
    0
 49
0
 74
    0
 49
-12.7
 74
    0
  0
LTYPE
  5
42
330
5
100
AcDbSymbolTableRecord
100
AcDbLinetypeTableRecord
  2
BORDER
 70
    0
  3
Border __ __ . __ __ . __ __ . __ __ . __ __ .
 72
   65
 73
    6
 40
44.45
 49
12.7
 74
    0
 49
-6.35
 74
    0
 49
12.7
 74
    0
 49
-6.35
 74
    0
 49
0
 74
    0
 49
-6.35
 74
    0
  0
LTYPE
  5
43
330
5
100
AcDbSymbolTableRecord
100
AcDbLinetypeTableRecord
  2
BORDERTINY
 70
    0
  3
Border (.15x) __.__.__.__.__.__.__.__.__.__.__.
 72
   65
 73
    6
 40
6.6675
 49
1.905
 74
    0
 49
-0.9525
 74
    0
 49
1.905
 74
    0
 49
-0.9525
 74
    0
 49
0
 74
    0
 49
-0.9525
 74
    0
  0
LTYPE
  5
44
330
5
100
AcDbSymbolTableRecord
100
AcDbLinetypeTableRecord
  2
BORDER2
 70
    0
  3
Border (.5x) __.__.__.__.__.__.__.__.__.__.__.
 72
   65
 73
    6
 40
22.225
 49
6.35
 74
    0
 49
-3.175
 74
    0
 49
6.35
 74
    0
 49
-3.175
 74
    0
 49
0
 74
    0
 49
-3.175
 74
    0
  0
LTYPE
  5
45
330
5
100
AcDbSymbolTableRecord
100
AcDbLinetypeTableRecord
  2
BORDERX2
 70
    0
  3
Border (2x) ____  ____  .  ____  ____  .  ___
 72
   65
 73
    6
 40
88.89999999999999
 49
25.4
 74
    0
 49
-12.7
 74
    0
 49
25.4
 74
    0
 49
-12.7
 74
    0
 49
0
 74
    0
 49
-12.7
 74
    0
  0
LTYPE
  5
46
330
5
100
AcDbSymbolTableRecord
100
AcDbLinetypeTableRecord
  2
CENTER
 70
    0
  3
Center ____ _ ____ _ ____ _ ____ _ ____ _ ____
 72
   65
 73
    4
 40
50.8
 49
31.75
 74
    0
 49
-6.35
 74
    0
 49
6.35
 74
    0
 49
-6.35
 74
    0
  0
LTYPE
  5
47
330
5
100
AcDbSymbolTableRecord
100
AcDbLinetypeTableRecord
  2
CENTERTINY
 70
    0
  3
Center (.15x) ___ _ ___ _ ___ _ ___ _ ___ _ ___
 72
   65
 73
    4
 40
7.619999999999999
 49
4.7625
 74
    0
 49
-0.9525
 74
    0
 49
0.9525
 74
    0
 49
-0.9525
 74
    0
  0
LTYPE
  5
48
330
5
100
AcDbSymbolTableRecord
100
AcDbLinetypeTableRecord
  2
CENTER2
 70
    0
  3
Center (.5x) ___ _ ___ _ ___ _ ___ _ ___ _ ___
 72
   65
 73
    4
 40
28.575
 49
19.05
 74
    0
 49
-3.175
 74
    0
 49
3.175
 74
    0
 49
-3.175
 74
    0
  0
LTYPE
  5
49
330
5
100
AcDbSymbolTableRecord
100
AcDbLinetypeTableRecord
  2
CENTERX2
 70
    0
  3
Center (2x) ________  __  ________  __  _____
 72
   65
 73
    4
 40
101.6
 49
63.5
 74
    0
 49
-12.7
 74
    0
 49
12.7
 74
    0
 49
-12.7
 74
    0
  0
ENDTAB
  0
TABLE
  2
LAYER
  5
2
330
0
100
AcDbSymbolTable
 70
    1
  0
LAYER
  5
10
330
2
100
AcDbSymbolTableRecord
100
AcDbLayerTableRecord
  2
0
 70
    0
 62
    7
  6
CONTINUOUS
370
    0
390
F
  0
ENDTAB
  0
TABLE
  2
STYLE
  5
3
330
0
100
AcDbSymbolTable
 70
    3
  0
STYLE
  5
4A
330
2
100
AcDbSymbolTableRecord
100
AcDbTextStyleTableRecord
  2
Standard
 70
    0
 40
0
 41
1
 50
0
 71
    0
 42
1
  3
txt
  4

  0
ENDTAB
  0
TABLE
  2
VIEW
  5
6
330
0
100
AcDbSymbolTable
 70
    0
  0
ENDTAB
  0
TABLE
  2
UCS
  5
7
330
0
100
AcDbSymbolTable
 70
    0
  0
ENDTAB
  0
TABLE
  2
APPID
  5
9
330
0
100
AcDbSymbolTable
 70
    1
  0
APPID
  5
12
330
9
100
AcDbSymbolTableRecord
100
AcDbRegAppTableRecord
  2
ACAD
 70
    0
  0
APPID
  5
4B
330
9
100
AcDbSymbolTableRecord
100
AcDbRegAppTableRecord
  2
LibreCad
 70
    0
  0
ENDTAB
  0
TABLE
  2
DIMSTYLE
  5
A
330
0
100
AcDbSymbolTable
 70
    1
100
AcDbDimStyleTable
 71
    1
  0
DIMSTYLE
105
4C
330
A
100
AcDbSymbolTableRecord
100
AcDbDimStyleTableRecord
  2
Standard
 70
    0
 40
1
 41
2.5
 42
0.625
 43
0.38
 44
1.25
 45
0
 46
0
 47
0
 48
0
 49
1
140
2.5
141
0.09
142
0
143
25.4
144
1
145
0
146
1
147
0.625
148
0
 71
    0
 72
    0
 73
    0
 74
    1
 75
    0
 76
    0
 77
    0
 78
    1
 79
    0
170
    0
171
    2
172
    0
173
    0
174
    0
175
    0
176
    0
177
    0
178
    0
179
    0
271
    2
272
    4
273
    2
274
    2
275
    0
276
    0
277
    2
278
    0
279
    0
280
    0
281
    0
282
    0
283
    1
284
    0
285
    0
286
    0
288
    0
289
    3
340
standard
341

371
   -2
372
   -2
  0
ENDTAB
  0
TABLE
  2
BLOCK_RECORD
  5
1
330
0
100
AcDbSymbolTable
 70
    2
  0
BLOCK_RECORD
  5
1F
330
1
100
AcDbSymbolTableRecord
100
AcDbBlockTableRecord
  2
*Model_Space
 70
    0
280
    1
281
    0
  0
BLOCK_RECORD
  5
1E
330
1
100
AcDbSymbolTableRecord
100
AcDbBlockTableRecord
  2
*Paper_Space
 70
    0
280
    1
281
    0
  0
ENDTAB
  0
ENDSEC
  0
SECTION
  2
BLOCKS
  0
BLOCK
  5
20
330
1F
100
AcDbEntity
  8
0
100
AcDbBlockBegin
  2
*Model_Space
 70
    0
 10
0
 20
0
 30
0
  3
*Model_Space
  1

  0
ENDBLK
  5
21
330
1F
100
AcDbEntity
  8
0
100
AcDbBlockEnd
  0
BLOCK
  5
1C
330
1B
100
AcDbEntity
  8
0
100
AcDbBlockBegin
  2
*Paper_Space
 70
    0
 10
0
 20
0
 30
0
  3
*Paper_Space
  1

  0
ENDBLK
  5
1D
330
1F
100
AcDbEntity
  8
0
100
AcDbBlockEnd
  0
ENDSEC
  0
SECTION
  2
ENTITIES
  0
ARC
  5
4D
100
AcDbEntity
  8
0
  6
ByLayer
 62
  256
370
   -1
100
AcDbCircle
 10
374.02375
 20
-23.645
 40
0.5
100
AcDbArc
 50
180
 51
270
  0
ARC
  5
4E
100
AcDbEntity
  8
0
  6
ByLayer
 62
  256
370
   -1
100
AcDbCircle
 10
387.02375
 20
-23.645
 40
0.5
100
AcDbArc
 50
270
 51
0
  0
ARC
  5
4F
100
AcDbEntity
  8
0
  6
ByLayer
 62
  256
370
   -1
100
AcDbCircle
 10
387.02375
 20
-10.645
 40
0.5
100
AcDbArc
 50
0
 51
90
  0
ARC
  5
50
100
AcDbEntity
  8
0
  6
ByLayer
 62
  256
370
   -1
100
AcDbCircle
 10
374.02375
 20
-10.645
 40
0.5
100
AcDbArc
 50
90
 51
180
  0
LINE
  5
51
100
AcDbEntity
  8
0
  6
ByLayer
 62
  256
370
   -1
100
AcDbLine
 10
374.02375
 20
-24.145
 11
387.02375
 21
-24.145
  0
LINE
  5
52
100
AcDbEntity
  8
0
  6
ByLayer
 62
  256
370
   -1
100
AcDbLine
 10
387.02375
 20
-10.145
 11
374.02375
 21
-10.145
  0
LINE
  5
53
100
AcDbEntity
  8
0
  6
ByLayer
 62
  256
370
   -1
100
AcDbLine
 10
387.52375
 20
-23.645
 11
387.52375
 21
-10.645
  0
LINE
  5
54
100
AcDbEntity
  8
0
  6
ByLayer
 62
  256
370
   -1
100
AcDbLine
 10
373.52375
 20
-10.645
 11
373.52375
 21
-23.645
  0
ARC
  5
55
100
AcDbEntity
  8
0
  6
ByLayer
 62
  256
370
   -1
100
AcDbCircle
 10
400.2175
 20
-23.645
 40
0.5
100
AcDbArc
 50
180
 51
270
  0
ARC
  5
56
100
AcDbEntity
  8
0
  6
ByLayer
 62
  256
370
   -1
100
AcDbCircle
 10
413.2175
 20
-23.645
 40
0.5
100
AcDbArc
 50
270
 51
0
  0
ARC
  5
57
100
AcDbEntity
  8
0
  6
ByLayer
 62
  256
370
   -1
100
AcDbCircle
 10
413.2175
 20
-10.645
 40
0.5
100
AcDbArc
 50
0
 51
90
  0
ARC
  5
58
100
AcDbEntity
  8
0
  6
ByLayer
 62
  256
370
   -1
100
AcDbCircle
 10
400.2175
 20
-10.645
 40
0.5
100
AcDbArc
 50
90
 51
180
  0
LINE
  5
59
100
AcDbEntity
  8
0
  6
ByLayer
 62
  256
370
   -1
100
AcDbLine
 10
400.2175
 20
-24.145
 11
413.2175
 21
-24.145
  0
LINE
  5
5A
100
AcDbEntity
  8
0
  6
ByLayer
 62
  256
370
   -1
100
AcDbLine
 10
413.2175
 20
-10.145
 11
400.2175
 21
-10.145
  0
LINE
  5
5B
100
AcDbEntity
  8
0
  6
ByLayer
 62
  256
370
   -1
100
AcDbLine
 10
413.7175
 20
-23.645
 11
413.7175
 21
-10.645
  0
LINE
  5
5C
100
AcDbEntity
  8
0
  6
ByLayer
 62
  256
370
   -1
100
AcDbLine
 10
399.7175
 20
-10.645
 11
399.7175
 21
-23.645
  0
ARC
  5
5D
100
AcDbEntity
  8
0
  6
ByLayer
 62
  256
370
   -1
100
AcDbCircle
 10
3.025
 20
-30.3125
 40
0.5
100
AcDbArc
 50
180
 51
270
  0
ARC
  5
5E
100
AcDbEntity
  8
0
  6
ByLayer
 62
  256
370
   -1
100
AcDbCircle
 10
16.025
 20
-30.3125
 40
0.5
100
AcDbArc
 50
270
 51
0
  0
ARC
  5
5F
100
AcDbEntity
  8
0
  6
ByLayer
 62
  256
370
   -1
100
AcDbCircle
 10
16.025
 20
-17.3125
 40
0.5
100
AcDbArc
 50
0
 51
90
  0
ARC
  5
60
100
AcDbEntity
  8
0
  6
ByLayer
 62
  256
370
   -1
100
AcDbCircle
 10
3.025
 20
-17.3125
 40
0.5
100
AcDbArc
 50
90
 51
180
  0
LINE
  5
61
100
AcDbEntity
  8
0
  6
ByLayer
 62
  256
370
   -1
100
AcDbLine
 10
3.025
 20
-30.8125
 11
16.025
 21
-30.8125
  0
LINE
  5
62
100
AcDbEntity
  8
0
  6
ByLayer
 62
  256
370
   -1
100
AcDbLine
 10
16.025
 20
-16.8125
 11
3.025
 21
-16.8125
  0
LINE
  5
63
100
AcDbEntity
  8
0
  6
ByLayer
 62
  256
370
   -1
100
AcDbLine
 10
16.525
 20
-30.3125
 11
16.525
 21
-17.3125
  0
LINE
  5
64
100
AcDbEntity
  8
0
  6
ByLayer
 62
  256
370
   -1
100
AcDbLine
 10
2.525
 20
-17.3125
 11
2.525
 21
-30.3125
  0
ARC
  5
65
100
AcDbEntity
  8
0
  6
ByLayer
 62
  256
370
   -1
100
AcDbCircle
 10
22.075
 20
-30.3125
 40
0.5
100
AcDbArc
 50
180
 51
270
  0
ARC
  5
66
100
AcDbEntity
  8
0
  6
ByLayer
 62
  256
370
   -1
100
AcDbCircle
 10
35.075
 20
-30.3125
 40
0.5
100
AcDbArc
 50
270
 51
0
  0
ARC
  5
67
100
AcDbEntity
  8
0
  6
ByLayer
 62
  256
370
   -1
100
AcDbCircle
 10
35.075
 20
-17.3125
 40
0.5
100
AcDbArc
 50
0
 51
90
  0
ARC
  5
68
100
AcDbEntity
  8
0
  6
ByLayer
 62
  256
370
   -1
100
AcDbCircle
 10
22.075
 20
-17.3125
 40
0.5
100
AcDbArc
 50
90
 51
180
  0
LINE
  5
69
100
AcDbEntity
  8
0
  6
ByLayer
 62
  256
370
   -1
100
AcDbLine
 10
22.075
 20
-30.8125
 11
35.075
 21
-30.8125
  0
LINE
  5
6A
100
AcDbEntity
  8
0
  6
ByLayer
 62
  256
370
   -1
100
AcDbLine
 10
35.075
 20
-16.8125
 11
22.075
 21
-16.8125
  0
LINE
  5
6B
100
AcDbEntity
  8
0
  6
ByLayer
 62
  256
370
   -1
100
AcDbLine
 10
35.575
 20
-30.3125
 11
35.575
 21
-17.3125
  0
LINE
  5
6C
100
AcDbEntity
  8
0
  6
ByLayer
 62
  256
370
   -1
100
AcDbLine
 10
21.575
 20
-17.3125
 11
21.575
 21
-30.3125
  0
ARC
  5
6D
100
AcDbEntity
  8
0
  6
ByLayer
 62
  256
370
   -1
100
AcDbCircle
 10
189.715
 20
-39.8375
 40
0.5
100
AcDbArc
 50
180
 51
270
  0
ARC
  5
6E
100
AcDbEntity
  8
0
  6
ByLayer
 62
  256
370
   -1
100
AcDbCircle
 10
202.715
 20
-39.8375
 40
0.5
100
AcDbArc
 50
270
 51
0
  0
ARC
  5
6F
100
AcDbEntity
  8
0
  6
ByLayer
 62
  256
370
   -1
100
AcDbCircle
 10
202.715
 20
-26.8375
 40
0.5
100
AcDbArc
 50
0
 51
90
  0
ARC
  5
70
100
AcDbEntity
  8
0
  6
ByLayer
 62
  256
370
   -1
100
AcDbCircle
 10
189.715
 20
-26.8375
 40
0.5
100
AcDbArc
 50
90
 51
180
  0
LINE
  5
71
100
AcDbEntity
  8
0
  6
ByLayer
 62
  256
370
   -1
100
AcDbLine
 10
189.715
 20
-40.3375
 11
202.715
 21
-40.3375
  0
LINE
  5
72
100
AcDbEntity
  8
0
  6
ByLayer
 62
  256
370
   -1
100
AcDbLine
 10
202.715
 20
-26.3375
 11
189.715
 21
-26.3375
  0
LINE
  5
73
100
AcDbEntity
  8
0
  6
ByLayer
 62
  256
370
   -1
100
AcDbLine
 10
203.215
 20
-39.8375
 11
203.215
 21
-26.8375
  0
LINE
  5
74
100
AcDbEntity
  8
0
  6
ByLayer
 62
  256
370
   -1
100
AcDbLine
 10
189.215
 20
-26.8375
 11
189.215
 21
-39.8375
  0
ARC
  5
75
100
AcDbEntity
  8
0
  6
ByLayer
 62
  256
370
   -1
100
AcDbCircle
 10
208.765
 20
-39.8375
 40
0.5
100
AcDbArc
 50
180
 51
270
  0
ARC
  5
76
100
AcDbEntity
  8
0
  6
ByLayer
 62
  256
370
   -1
100
AcDbCircle
 10
221.765
 20
-39.8375
 40
0.5
100
AcDbArc
 50
270
 51
0
  0
ARC
  5
77
100
AcDbEntity
  8
0
  6
ByLayer
 62
  256
370
   -1
100
AcDbCircle
 10
221.765
 20
-26.8375
 40
0.5
100
AcDbArc
 50
0
 51
90
  0
ARC
  5
78
100
AcDbEntity
  8
0
  6
ByLayer
 62
  256
370
   -1
100
AcDbCircle
 10
208.765
 20
-26.8375
 40
0.5
100
AcDbArc
 50
90
 51
180
  0
LINE
  5
79
100
AcDbEntity
  8
0
  6
ByLayer
 62
  256
370
   -1
100
AcDbLine
 10
208.765
 20
-40.3375
 11
221.765
 21
-40.3375
  0
LINE
  5
7A
100
AcDbEntity
  8
0
  6
ByLayer
 62
  256
370
   -1
100
AcDbLine
 10
221.765
 20
-26.3375
 11
208.765
 21
-26.3375
  0
LINE
  5
7B
100
AcDbEntity
  8
0
  6
ByLayer
 62
  256
370
   -1
100
AcDbLine
 10
222.265
 20
-39.8375
 11
222.265
 21
-26.8375
  0
LINE
  5
7C
100
AcDbEntity
  8
0
  6
ByLayer
 62
  256
370
   -1
100
AcDbLine
 10
208.265
 20
-26.8375
 11
208.265
 21
-39.8375
  0
ARC
  5
7D
100
AcDbEntity
  8
0
  6
ByLayer
 62
  256
370
   -1
100
AcDbCircle
 10
374.02375
 20
-42.695
 40
0.5
100
AcDbArc
 50
180
 51
270
  0
ARC
  5
7E
100
AcDbEntity
  8
0
  6
ByLayer
 62
  256
370
   -1
100
AcDbCircle
 10
387.02375
 20
-42.695
 40
0.5
100
AcDbArc
 50
270
 51
0
  0
ARC
  5
7F
100
AcDbEntity
  8
0
  6
ByLayer
 62
  256
370
   -1
100
AcDbCircle
 10
387.02375
 20
-29.695
 40
0.5
100
AcDbArc
 50
0
 51
90
  0
ARC
  5
80
100
AcDbEntity
  8
0
  6
ByLayer
 62
  256
370
   -1
100
AcDbCircle
 10
374.02375
 20
-29.695
 40
0.5
100
AcDbArc
 50
90
 51
180
  0
LINE
  5
81
100
AcDbEntity
  8
0
  6
ByLayer
 62
  256
370
   -1
100
AcDbLine
 10
374.02375
 20
-43.195
 11
387.02375
 21
-43.195
  0
LINE
  5
82
100
AcDbEntity
  8
0
  6
ByLayer
 62
  256
370
   -1
100
AcDbLine
 10
387.02375
 20
-29.195
 11
374.02375
 21
-29.195
  0
LINE
  5
83
100
AcDbEntity
  8
0
  6
ByLayer
 62
  256
370
   -1
100
AcDbLine
 10
387.52375
 20
-42.695
 11
387.52375
 21
-29.695
  0
LINE
  5
84
100
AcDbEntity
  8
0
  6
ByLayer
 62
  256
370
   -1
100
AcDbLine
 10
373.52375
 20
-29.695
 11
373.52375
 21
-42.695
  0
ARC
  5
85
100
AcDbEntity
  8
0
  6
ByLayer
 62
  256
370
   -1
100
AcDbCircle
 10
400.2175
 20
-42.695
 40
0.5
100
AcDbArc
 50
180
 51
270
  0
ARC
  5
86
100
AcDbEntity
  8
0
  6
ByLayer
 62
  256
370
   -1
100
AcDbCircle
 10
413.2175
 20
-42.695
 40
0.5
100
AcDbArc
 50
270
 51
0
  0
ARC
  5
87
100
AcDbEntity
  8
0
  6
ByLayer
 62
  256
370
   -1
100
AcDbCircle
 10
413.2175
 20
-29.695
 40
0.5
100
AcDbArc
 50
0
 51
90
  0
ARC
  5
88
100
AcDbEntity
  8
0
  6
ByLayer
 62
  256
370
   -1
100
AcDbCircle
 10
400.2175
 20
-29.695
 40
0.5
100
AcDbArc
 50
90
 51
180
  0
LINE
  5
89
100
AcDbEntity
  8
0
  6
ByLayer
 62
  256
370
   -1
100
AcDbLine
 10
400.2175
 20
-43.195
 11
413.2175
 21
-43.195
  0
LINE
  5
8A
100
AcDbEntity
  8
0
  6
ByLayer
 62
  256
370
   -1
100
AcDbLine
 10
413.2175
 20
-29.195
 11
400.2175
 21
-29.195
  0
LINE
  5
8B
100
AcDbEntity
  8
0
  6
ByLayer
 62
  256
370
   -1
100
AcDbLine
 10
413.7175
 20
-42.695
 11
413.7175
 21
-29.695
  0
LINE
  5
8C
100
AcDbEntity
  8
0
  6
ByLayer
 62
  256
370
   -1
100
AcDbLine
 10
399.7175
 20
-29.695
 11
399.7175
 21
-42.695
  0
ARC
  5
8D
100
AcDbEntity
  8
0
  6
ByLayer
 62
  256
370
   -1
100
AcDbCircle
 10
3.025
 20
-49.3625
 40
0.5
100
AcDbArc
 50
180
 51
270
  0
ARC
  5
8E
100
AcDbEntity
  8
0
  6
ByLayer
 62
  256
370
   -1
100
AcDbCircle
 10
16.025
 20
-49.3625
 40
0.5
100
AcDbArc
 50
270
 51
0
  0
ARC
  5
8F
100
AcDbEntity
  8
0
  6
ByLayer
 62
  256
370
   -1
100
AcDbCircle
 10
16.025
 20
-36.3625
 40
0.5
100
AcDbArc
 50
0
 51
90
  0
ARC
  5
90
100
AcDbEntity
  8
0
  6
ByLayer
 62
  256
370
   -1
100
AcDbCircle
 10
3.025
 20
-36.3625
 40
0.5
100
AcDbArc
 50
90
 51
180
  0
LINE
  5
91
100
AcDbEntity
  8
0
  6
ByLayer
 62
  256
370
   -1
100
AcDbLine
 10
3.025
 20
-49.8625
 11
16.025
 21
-49.8625
  0
LINE
  5
92
100
AcDbEntity
  8
0
  6
ByLayer
 62
  256
370
   -1
100
AcDbLine
 10
16.025
 20
-35.8625
 11
3.025
 21
-35.8625
  0
LINE
  5
93
100
AcDbEntity
  8
0
  6
ByLayer
 62
  256
370
   -1
100
AcDbLine
 10
16.525
 20
-49.3625
 11
16.525
 21
-36.3625
  0
LINE
  5
94
100
AcDbEntity
  8
0
  6
ByLayer
 62
  256
370
   -1
100
AcDbLine
 10
2.525
 20
-36.3625
 11
2.525
 21
-49.3625
  0
ARC
  5
95
100
AcDbEntity
  8
0
  6
ByLayer
 62
  256
370
   -1
100
AcDbCircle
 10
22.075
 20
-49.3625
 40
0.5
100
AcDbArc
 50
180
 51
270
  0
ARC
  5
96
100
AcDbEntity
  8
0
  6
ByLayer
 62
  256
370
   -1
100
AcDbCircle
 10
35.075
 20
-49.3625
 40
0.5
100
AcDbArc
 50
270
 51
0
  0
ARC
  5
97
100
AcDbEntity
  8
0
  6
ByLayer
 62
  256
370
   -1
100
AcDbCircle
 10
35.075
 20
-36.3625
 40
0.5
100
AcDbArc
 50
0
 51
90
  0
ARC
  5
98
100
AcDbEntity
  8
0
  6
ByLayer
 62
  256
370
   -1
100
AcDbCircle
 10
22.075
 20
-36.3625
 40
0.5
100
AcDbArc
 50
90
 51
180
  0
LINE
  5
99
100
AcDbEntity
  8
0
  6
ByLayer
 62
  256
370
   -1
100
AcDbLine
 10
22.075
 20
-49.8625
 11
35.075
 21
-49.8625
  0
LINE
  5
9A
100
AcDbEntity
  8
0
  6
ByLayer
 62
  256
370
   -1
100
AcDbLine
 10
35.075
 20
-35.8625
 11
22.075
 21
-35.8625
  0
LINE
  5
9B
100
AcDbEntity
  8
0
  6
ByLayer
 62
  256
370
   -1
100
AcDbLine
 10
35.575
 20
-49.3625
 11
35.575
 21
-36.3625
  0
LINE
  5
9C
100
AcDbEntity
  8
0
  6
ByLayer
 62
  256
370
   -1
100
AcDbLine
 10
21.575
 20
-36.3625
 11
21.575
 21
-49.3625
  0
ARC
  5
9D
100
AcDbEntity
  8
0
  6
ByLayer
 62
  256
370
   -1
100
AcDbCircle
 10
374.02375
 20
-61.745
 40
0.5
100
AcDbArc
 50
180
 51
270
  0
ARC
  5
9E
100
AcDbEntity
  8
0
  6
ByLayer
 62
  256
370
   -1
100
AcDbCircle
 10
387.02375
 20
-61.745
 40
0.5
100
AcDbArc
 50
270
 51
0
  0
ARC
  5
9F
100
AcDbEntity
  8
0
  6
ByLayer
 62
  256
370
   -1
100
AcDbCircle
 10
387.02375
 20
-48.745
 40
0.5
100
AcDbArc
 50
0
 51
90
  0
ARC
  5
A0
100
AcDbEntity
  8
0
  6
ByLayer
 62
  256
370
   -1
100
AcDbCircle
 10
374.02375
 20
-48.745
 40
0.5
100
AcDbArc
 50
90
 51
180
  0
LINE
  5
A1
100
AcDbEntity
  8
0
  6
ByLayer
 62
  256
370
   -1
100
AcDbLine
 10
374.02375
 20
-62.245
 11
387.02375
 21
-62.245
  0
LINE
  5
A2
100
AcDbEntity
  8
0
  6
ByLayer
 62
  256
370
   -1
100
AcDbLine
 10
387.02375
 20
-48.245
 11
374.02375
 21
-48.245
  0
LINE
  5
A3
100
AcDbEntity
  8
0
  6
ByLayer
 62
  256
370
   -1
100
AcDbLine
 10
387.52375
 20
-61.745
 11
387.52375
 21
-48.745
  0
LINE
  5
A4
100
AcDbEntity
  8
0
  6
ByLayer
 62
  256
370
   -1
100
AcDbLine
 10
373.52375
 20
-48.745
 11
373.52375
 21
-61.745
  0
ARC
  5
A5
100
AcDbEntity
  8
0
  6
ByLayer
 62
  256
370
   -1
100
AcDbCircle
 10
400.2175
 20
-61.745
 40
0.5
100
AcDbArc
 50
180
 51
270
  0
ARC
  5
A6
100
AcDbEntity
  8
0
  6
ByLayer
 62
  256
370
   -1
100
AcDbCircle
 10
413.2175
 20
-61.745
 40
0.5
100
AcDbArc
 50
270
 51
0
  0
ARC
  5
A7
100
AcDbEntity
  8
0
  6
ByLayer
 62
  256
370
   -1
100
AcDbCircle
 10
413.2175
 20
-48.745
 40
0.5
100
AcDbArc
 50
0
 51
90
  0
ARC
  5
A8
100
AcDbEntity
  8
0
  6
ByLayer
 62
  256
370
   -1
100
AcDbCircle
 10
400.2175
 20
-48.745
 40
0.5
100
AcDbArc
 50
90
 51
180
  0
LINE
  5
A9
100
AcDbEntity
  8
0
  6
ByLayer
 62
  256
370
   -1
100
AcDbLine
 10
400.2175
 20
-62.245
 11
413.2175
 21
-62.245
  0
LINE
  5
AA
100
AcDbEntity
  8
0
  6
ByLayer
 62
  256
370
   -1
100
AcDbLine
 10
413.2175
 20
-48.245
 11
400.2175
 21
-48.245
  0
LINE
  5
AB
100
AcDbEntity
  8
0
  6
ByLayer
 62
  256
370
   -1
100
AcDbLine
 10
413.7175
 20
-61.745
 11
413.7175
 21
-48.745
  0
LINE
  5
AC
100
AcDbEntity
  8
0
  6
ByLayer
 62
  256
370
   -1
100
AcDbLine
 10
399.7175
 20
-48.745
 11
399.7175
 21
-61.745
  0
ARC
  5
AD
100
AcDbEntity
  8
0
  6
ByLayer
 62
  256
370
   -1
100
AcDbCircle
 10
3.025
 20
-68.41249999999999
 40
0.5
100
AcDbArc
 50
180
 51
270
  0
ARC
  5
AE
100
AcDbEntity
  8
0
  6
ByLayer
 62
  256
370
   -1
100
AcDbCircle
 10
16.025
 20
-68.41249999999999
 40
0.5
100
AcDbArc
 50
270
 51
0
  0
ARC
  5
AF
100
AcDbEntity
  8
0
  6
ByLayer
 62
  256
370
   -1
100
AcDbCircle
 10
16.025
 20
-55.4125
 40
0.5
100
AcDbArc
 50
0
 51
90
  0
ARC
  5
B0
100
AcDbEntity
  8
0
  6
ByLayer
 62
  256
370
   -1
100
AcDbCircle
 10
3.025
 20
-55.4125
 40
0.5
100
AcDbArc
 50
90
 51
180
  0
LINE
  5
B1
100
AcDbEntity
  8
0
  6
ByLayer
 62
  256
370
   -1
100
AcDbLine
 10
3.025
 20
-68.91249999999999
 11
16.025
 21
-68.91249999999999
  0
LINE
  5
B2
100
AcDbEntity
  8
0
  6
ByLayer
 62
  256
370
   -1
100
AcDbLine
 10
16.025
 20
-54.9125
 11
3.025
 21
-54.9125
  0
LINE
  5
B3
100
AcDbEntity
  8
0
  6
ByLayer
 62
  256
370
   -1
100
AcDbLine
 10
16.525
 20
-68.41249999999999
 11
16.525
 21
-55.4125
  0
LINE
  5
B4
100
AcDbEntity
  8
0
  6
ByLayer
 62
  256
370
   -1
100
AcDbLine
 10
2.525
 20
-55.4125
 11
2.525
 21
-68.41249999999999
  0
ARC
  5
B5
100
AcDbEntity
  8
0
  6
ByLayer
 62
  256
370
   -1
100
AcDbCircle
 10
22.075
 20
-68.41249999999999
 40
0.5
100
AcDbArc
 50
180
 51
270
  0
ARC
  5
B6
100
AcDbEntity
  8
0
  6
ByLayer
 62
  256
370
   -1
100
AcDbCircle
 10
35.075
 20
-68.41249999999999
 40
0.5
100
AcDbArc
 50
270
 51
0
  0
ARC
  5
B7
100
AcDbEntity
  8
0
  6
ByLayer
 62
  256
370
   -1
100
AcDbCircle
 10
35.075
 20
-55.4125
 40
0.5
100
AcDbArc
 50
0
 51
90
  0
ARC
  5
B8
100
AcDbEntity
  8
0
  6
ByLayer
 62
  256
370
   -1
100
AcDbCircle
 10
22.075
 20
-55.4125
 40
0.5
100
AcDbArc
 50
90
 51
180
  0
LINE
  5
B9
100
AcDbEntity
  8
0
  6
ByLayer
 62
  256
370
   -1
100
AcDbLine
 10
22.075
 20
-68.91249999999999
 11
35.075
 21
-68.91249999999999
  0
LINE
  5
BA
100
AcDbEntity
  8
0
  6
ByLayer
 62
  256
370
   -1
100
AcDbLine
 10
35.075
 20
-54.9125
 11
22.075
 21
-54.9125
  0
LINE
  5
BB
100
AcDbEntity
  8
0
  6
ByLayer
 62
  256
370
   -1
100
AcDbLine
 10
35.575
 20
-68.41249999999999
 11
35.575
 21
-55.4125
  0
LINE
  5
BC
100
AcDbEntity
  8
0
  6
ByLayer
 62
  256
370
   -1
100
AcDbLine
 10
21.575
 20
-55.4125
 11
21.575
 21
-68.41249999999999
  0
ARC
  5
BD
100
AcDbEntity
  8
0
  6
ByLayer
 62
  256
370
   -1
100
AcDbCircle
 10
189.715
 20
-68.41249999999999
 40
0.5
100
AcDbArc
 50
180
 51
270
  0
ARC
  5
BE
100
AcDbEntity
  8
0
  6
ByLayer
 62
  256
370
   -1
100
AcDbCircle
 10
202.715
 20
-68.41249999999999
 40
0.5
100
AcDbArc
 50
270
 51
0
  0
ARC
  5
BF
100
AcDbEntity
  8
0
  6
ByLayer
 62
  256
370
   -1
100
AcDbCircle
 10
202.715
 20
-55.4125
 40
0.5
100
AcDbArc
 50
0
 51
90
  0
ARC
  5
C0
100
AcDbEntity
  8
0
  6
ByLayer
 62
  256
370
   -1
100
AcDbCircle
 10
189.715
 20
-55.4125
 40
0.5
100
AcDbArc
 50
90
 51
180
  0
LINE
  5
C1
100
AcDbEntity
  8
0
  6
ByLayer
 62
  256
370
   -1
100
AcDbLine
 10
189.715
 20
-68.91249999999999
 11
202.715
 21
-68.91249999999999
  0
LINE
  5
C2
100
AcDbEntity
  8
0
  6
ByLayer
 62
  256
370
   -1
100
AcDbLine
 10
202.715
 20
-54.9125
 11
189.715
 21
-54.9125
  0
LINE
  5
C3
100
AcDbEntity
  8
0
  6
ByLayer
 62
  256
370
   -1
100
AcDbLine
 10
203.215
 20
-68.41249999999999
 11
203.215
 21
-55.4125
  0
LINE
  5
C4
100
AcDbEntity
  8
0
  6
ByLayer
 62
  256
370
   -1
100
AcDbLine
 10
189.215
 20
-55.4125
 11
189.215
 21
-68.41249999999999
  0
ARC
  5
C5
100
AcDbEntity
  8
0
  6
ByLayer
 62
  256
370
   -1
100
AcDbCircle
 10
208.765
 20
-68.41249999999999
 40
0.5
100
AcDbArc
 50
180
 51
270
  0
ARC
  5
C6
100
AcDbEntity
  8
0
  6
ByLayer
 62
  256
370
   -1
100
AcDbCircle
 10
221.765
 20
-68.41249999999999
 40
0.5
100
AcDbArc
 50
270
 51
0
  0
ARC
  5
C7
100
AcDbEntity
  8
0
  6
ByLayer
 62
  256
370
   -1
100
AcDbCircle
 10
221.765
 20
-55.4125
 40
0.5
100
AcDbArc
 50
0
 51
90
  0
ARC
  5
C8
100
AcDbEntity
  8
0
  6
ByLayer
 62
  256
370
   -1
100
AcDbCircle
 10
208.765
 20
-55.4125
 40
0.5
100
AcDbArc
 50
90
 51
180
  0
LINE
  5
C9
100
AcDbEntity
  8
0
  6
ByLayer
 62
  256
370
   -1
100
AcDbLine
 10
208.765
 20
-68.91249999999999
 11
221.765
 21
-68.91249999999999
  0
LINE
  5
CA
100
AcDbEntity
  8
0
  6
ByLayer
 62
  256
370
   -1
100
AcDbLine
 10
221.765
 20
-54.9125
 11
208.765
 21
-54.9125
  0
LINE
  5
CB
100
AcDbEntity
  8
0
  6
ByLayer
 62
  256
370
   -1
100
AcDbLine
 10
222.265
 20
-68.41249999999999
 11
222.265
 21
-55.4125
  0
LINE
  5
CC
100
AcDbEntity
  8
0
  6
ByLayer
 62
  256
370
   -1
100
AcDbLine
 10
208.265
 20
-55.4125
 11
208.265
 21
-68.41249999999999
  0
ARC
  5
CD
100
AcDbEntity
  8
0
  6
ByLayer
 62
  256
370
   -1
100
AcDbCircle
 10
374.02375
 20
-80.795
 40
0.5
100
AcDbArc
 50
180
 51
270
  0
ARC
  5
CE
100
AcDbEntity
  8
0
  6
ByLayer
 62
  256
370
   -1
100
AcDbCircle
 10
387.02375
 20
-80.795
 40
0.5
100
AcDbArc
 50
270
 51
0
  0
ARC
  5
CF
100
AcDbEntity
  8
0
  6
ByLayer
 62
  256
370
   -1
100
AcDbCircle
 10
387.02375
 20
-67.795
 40
0.5
100
AcDbArc
 50
0
 51
90
  0
ARC
  5
D0
100
AcDbEntity
  8
0
  6
ByLayer
 62
  256
370
   -1
100
AcDbCircle
 10
374.02375
 20
-67.795
 40
0.5
100
AcDbArc
 50
90
 51
180
  0
LINE
  5
D1
100
AcDbEntity
  8
0
  6
ByLayer
 62
  256
370
   -1
100
AcDbLine
 10
374.02375
 20
-81.295
 11
387.02375
 21
-81.295
  0
LINE
  5
D2
100
AcDbEntity
  8
0
  6
ByLayer
 62
  256
370
   -1
100
AcDbLine
 10
387.02375
 20
-67.295
 11
374.02375
 21
-67.295
  0
LINE
  5
D3
100
AcDbEntity
  8
0
  6
ByLayer
 62
  256
370
   -1
100
AcDbLine
 10
387.52375
 20
-80.795
 11
387.52375
 21
-67.795
  0
LINE
  5
D4
100
AcDbEntity
  8
0
  6
ByLayer
 62
  256
370
   -1
100
AcDbLine
 10
373.52375
 20
-67.795
 11
373.52375
 21
-80.795
  0
ARC
  5
D5
100
AcDbEntity
  8
0
  6
ByLayer
 62
  256
370
   -1
100
AcDbCircle
 10
400.2175
 20
-80.795
 40
0.5
100
AcDbArc
 50
180
 51
270
  0
ARC
  5
D6
100
AcDbEntity
  8
0
  6
ByLayer
 62
  256
370
   -1
100
AcDbCircle
 10
413.2175
 20
-80.795
 40
0.5
100
AcDbArc
 50
270
 51
0
  0
ARC
  5
D7
100
AcDbEntity
  8
0
  6
ByLayer
 62
  256
370
   -1
100
AcDbCircle
 10
413.2175
 20
-67.795
 40
0.5
100
AcDbArc
 50
0
 51
90
  0
ARC
  5
D8
100
AcDbEntity
  8
0
  6
ByLayer
 62
  256
370
   -1
100
AcDbCircle
 10
400.2175
 20
-67.795
 40
0.5
100
AcDbArc
 50
90
 51
180
  0
LINE
  5
D9
100
AcDbEntity
  8
0
  6
ByLayer
 62
  256
370
   -1
100
AcDbLine
 10
400.2175
 20
-81.295
 11
413.2175
 21
-81.295
  0
LINE
  5
DA
100
AcDbEntity
  8
0
  6
ByLayer
 62
  256
370
   -1
100
AcDbLine
 10
413.2175
 20
-67.295
 11
400.2175
 21
-67.295
  0
LINE
  5
DB
100
AcDbEntity
  8
0
  6
ByLayer
 62
  256
370
   -1
100
AcDbLine
 10
413.7175
 20
-80.795
 11
413.7175
 21
-67.795
  0
LINE
  5
DC
100
AcDbEntity
  8
0
  6
ByLayer
 62
  256
370
   -1
100
AcDbLine
 10
399.7175
 20
-67.795
 11
399.7175
 21
-80.795
  0
ARC
  5
DD
100
AcDbEntity
  8
0
  6
ByLayer
 62
  256
370
   -1
100
AcDbCircle
 10
3.025
 20
-87.46250000000001
 40
0.5
100
AcDbArc
 50
180
 51
270
  0
ARC
  5
DE
100
AcDbEntity
  8
0
  6
ByLayer
 62
  256
370
   -1
100
AcDbCircle
 10
16.025
 20
-87.46250000000001
 40
0.5
100
AcDbArc
 50
270
 51
0
  0
ARC
  5
DF
100
AcDbEntity
  8
0
  6
ByLayer
 62
  256
370
   -1
100
AcDbCircle
 10
16.025
 20
-74.46250000000001
 40
0.5
100
AcDbArc
 50
0
 51
90
  0
ARC
  5
E0
100
AcDbEntity
  8
0
  6
ByLayer
 62
  256
370
   -1
100
AcDbCircle
 10
3.025
 20
-74.46250000000001
 40
0.5
100
AcDbArc
 50
90
 51
180
  0
LINE
  5
E1
100
AcDbEntity
  8
0
  6
ByLayer
 62
  256
370
   -1
100
AcDbLine
 10
3.025
 20
-87.96250000000001
 11
16.025
 21
-87.96250000000001
  0
LINE
  5
E2
100
AcDbEntity
  8
0
  6
ByLayer
 62
  256
370
   -1
100
AcDbLine
 10
16.025
 20
-73.96250000000001
 11
3.025
 21
-73.96250000000001
  0
LINE
  5
E3
100
AcDbEntity
  8
0
  6
ByLayer
 62
  256
370
   -1
100
AcDbLine
 10
16.525
 20
-87.46250000000001
 11
16.525
 21
-74.46250000000001
  0
LINE
  5
E4
100
AcDbEntity
  8
0
  6
ByLayer
 62
  256
370
   -1
100
AcDbLine
 10
2.525
 20
-74.46250000000001
 11
2.525
 21
-87.46250000000001
  0
ARC
  5
E5
100
AcDbEntity
  8
0
  6
ByLayer
 62
  256
370
   -1
100
AcDbCircle
 10
22.075
 20
-87.46250000000001
 40
0.5
100
AcDbArc
 50
180
 51
270
  0
ARC
  5
E6
100
AcDbEntity
  8
0
  6
ByLayer
 62
  256
370
   -1
100
AcDbCircle
 10
35.075
 20
-87.46250000000001
 40
0.5
100
AcDbArc
 50
270
 51
0
  0
ARC
  5
E7
100
AcDbEntity
  8
0
  6
ByLayer
 62
  256
370
   -1
100
AcDbCircle
 10
35.075
 20
-74.46250000000001
 40
0.5
100
AcDbArc
 50
0
 51
90
  0
ARC
  5
E8
100
AcDbEntity
  8
0
  6
ByLayer
 62
  256
370
   -1
100
AcDbCircle
 10
22.075
 20
-74.46250000000001
 40
0.5
100
AcDbArc
 50
90
 51
180
  0
LINE
  5
E9
100
AcDbEntity
  8
0
  6
ByLayer
 62
  256
370
   -1
100
AcDbLine
 10
22.075
 20
-87.96250000000001
 11
35.075
 21
-87.96250000000001
  0
LINE
  5
EA
100
AcDbEntity
  8
0
  6
ByLayer
 62
  256
370
   -1
100
AcDbLine
 10
35.075
 20
-73.96250000000001
 11
22.075
 21
-73.96250000000001
  0
LINE
  5
EB
100
AcDbEntity
  8
0
  6
ByLayer
 62
  256
370
   -1
100
AcDbLine
 10
35.575
 20
-87.46250000000001
 11
35.575
 21
-74.46250000000001
  0
LINE
  5
EC
100
AcDbEntity
  8
0
  6
ByLayer
 62
  256
370
   -1
100
AcDbLine
 10
21.575
 20
-74.46250000000001
 11
21.575
 21
-87.46250000000001
  0
ARC
  5
ED
100
AcDbEntity
  8
0
  6
ByLayer
 62
  256
370
   -1
100
AcDbCircle
 10
189.715
 20
-87.46250000000001
 40
0.5
100
AcDbArc
 50
180
 51
270
  0
ARC
  5
EE
100
AcDbEntity
  8
0
  6
ByLayer
 62
  256
370
   -1
100
AcDbCircle
 10
202.715
 20
-87.46250000000001
 40
0.5
100
AcDbArc
 50
270
 51
0
  0
ARC
  5
EF
100
AcDbEntity
  8
0
  6
ByLayer
 62
  256
370
   -1
100
AcDbCircle
 10
202.715
 20
-74.46250000000001
 40
0.5
100
AcDbArc
 50
0
 51
90
  0
ARC
  5
F0
100
AcDbEntity
  8
0
  6
ByLayer
 62
  256
370
   -1
100
AcDbCircle
 10
189.715
 20
-74.46250000000001
 40
0.5
100
AcDbArc
 50
90
 51
180
  0
LINE
  5
F1
100
AcDbEntity
  8
0
  6
ByLayer
 62
  256
370
   -1
100
AcDbLine
 10
189.715
 20
-87.96250000000001
 11
202.715
 21
-87.96250000000001
  0
LINE
  5
F2
100
AcDbEntity
  8
0
  6
ByLayer
 62
  256
370
   -1
100
AcDbLine
 10
202.715
 20
-73.96250000000001
 11
189.715
 21
-73.96250000000001
  0
LINE
  5
F3
100
AcDbEntity
  8
0
  6
ByLayer
 62
  256
370
   -1
100
AcDbLine
 10
203.215
 20
-87.46250000000001
 11
203.215
 21
-74.46250000000001
  0
LINE
  5
F4
100
AcDbEntity
  8
0
  6
ByLayer
 62
  256
370
   -1
100
AcDbLine
 10
189.215
 20
-74.46250000000001
 11
189.215
 21
-87.46250000000001
  0
ARC
  5
F5
100
AcDbEntity
  8
0
  6
ByLayer
 62
  256
370
   -1
100
AcDbCircle
 10
208.765
 20
-87.46250000000001
 40
0.5
100
AcDbArc
 50
180
 51
270
  0
ARC
  5
F6
100
AcDbEntity
  8
0
  6
ByLayer
 62
  256
370
   -1
100
AcDbCircle
 10
221.765
 20
-87.46250000000001
 40
0.5
100
AcDbArc
 50
270
 51
0
  0
ARC
  5
F7
100
AcDbEntity
  8
0
  6
ByLayer
 62
  256
370
   -1
100
AcDbCircle
 10
221.765
 20
-74.46250000000001
 40
0.5
100
AcDbArc
 50
0
 51
90
  0
ARC
  5
F8
100
AcDbEntity
  8
0
  6
ByLayer
 62
  256
370
   -1
100
AcDbCircle
 10
208.765
 20
-74.46250000000001
 40
0.5
100
AcDbArc
 50
90
 51
180
  0
LINE
  5
F9
100
AcDbEntity
  8
0
  6
ByLayer
 62
  256
370
   -1
100
AcDbLine
 10
208.765
 20
-87.96250000000001
 11
221.765
 21
-87.96250000000001
  0
LINE
  5
FA
100
AcDbEntity
  8
0
  6
ByLayer
 62
  256
370
   -1
100
AcDbLine
 10
221.765
 20
-73.96250000000001
 11
208.765
 21
-73.96250000000001
  0
LINE
  5
FB
100
AcDbEntity
  8
0
  6
ByLayer
 62
  256
370
   -1
100
AcDbLine
 10
222.265
 20
-87.46250000000001
 11
222.265
 21
-74.46250000000001
  0
LINE
  5
FC
100
AcDbEntity
  8
0
  6
ByLayer
 62
  256
370
   -1
100
AcDbLine
 10
208.265
 20
-74.46250000000001
 11
208.265
 21
-87.46250000000001
  0
ARC
  5
FD
100
AcDbEntity
  8
0
  6
ByLayer
 62
  256
370
   -1
100
AcDbCircle
 10
374.02375
 20
-99.845
 40
0.5
100
AcDbArc
 50
180
 51
270
  0
ARC
  5
FE
100
AcDbEntity
  8
0
  6
ByLayer
 62
  256
370
   -1
100
AcDbCircle
 10
387.02375
 20
-99.845
 40
0.5
100
AcDbArc
 50
270
 51
0
  0
ARC
  5
FF
100
AcDbEntity
  8
0
  6
ByLayer
 62
  256
370
   -1
100
AcDbCircle
 10
387.02375
 20
-86.845
 40
0.5
100
AcDbArc
 50
0
 51
90
  0
ARC
  5
100
100
AcDbEntity
  8
0
  6
ByLayer
 62
  256
370
   -1
100
AcDbCircle
 10
374.02375
 20
-86.845
 40
0.5
100
AcDbArc
 50
90
 51
180
  0
LINE
  5
101
100
AcDbEntity
  8
0
  6
ByLayer
 62
  256
370
   -1
100
AcDbLine
 10
374.02375
 20
-100.345
 11
387.02375
 21
-100.345
  0
LINE
  5
102
100
AcDbEntity
  8
0
  6
ByLayer
 62
  256
370
   -1
100
AcDbLine
 10
387.02375
 20
-86.345
 11
374.02375
 21
-86.345
  0
LINE
  5
103
100
AcDbEntity
  8
0
  6
ByLayer
 62
  256
370
   -1
100
AcDbLine
 10
387.52375
 20
-99.845
 11
387.52375
 21
-86.845
  0
LINE
  5
104
100
AcDbEntity
  8
0
  6
ByLayer
 62
  256
370
   -1
100
AcDbLine
 10
373.52375
 20
-86.845
 11
373.52375
 21
-99.845
  0
ARC
  5
105
100
AcDbEntity
  8
0
  6
ByLayer
 62
  256
370
   -1
100
AcDbCircle
 10
400.2175
 20
-99.845
 40
0.5
100
AcDbArc
 50
180
 51
270
  0
ARC
  5
106
100
AcDbEntity
  8
0
  6
ByLayer
 62
  256
370
   -1
100
AcDbCircle
 10
413.2175
 20
-99.845
 40
0.5
100
AcDbArc
 50
270
 51
0
  0
ARC
  5
107
100
AcDbEntity
  8
0
  6
ByLayer
 62
  256
370
   -1
100
AcDbCircle
 10
413.2175
 20
-86.845
 40
0.5
100
AcDbArc
 50
0
 51
90
  0
ARC
  5
108
100
AcDbEntity
  8
0
  6
ByLayer
 62
  256
370
   -1
100
AcDbCircle
 10
400.2175
 20
-86.845
 40
0.5
100
AcDbArc
 50
90
 51
180
  0
LINE
  5
109
100
AcDbEntity
  8
0
  6
ByLayer
 62
  256
370
   -1
100
AcDbLine
 10
400.2175
 20
-100.345
 11
413.2175
 21
-100.345
  0
LINE
  5
10A
100
AcDbEntity
  8
0
  6
ByLayer
 62
  256
370
   -1
100
AcDbLine
 10
413.2175
 20
-86.345
 11
400.2175
 21
-86.345
  0
LINE
  5
10B
100
AcDbEntity
  8
0
  6
ByLayer
 62
  256
370
   -1
100
AcDbLine
 10
413.7175
 20
-99.845
 11
413.7175
 21
-86.845
  0
LINE
  5
10C
100
AcDbEntity
  8
0
  6
ByLayer
 62
  256
370
   -1
100
AcDbLine
 10
399.7175
 20
-86.845
 11
399.7175
 21
-99.845
  0
ARC
  5
10D
100
AcDbEntity
  8
0
  6
ByLayer
 62
  256
370
   -1
100
AcDbCircle
 10
3.025
 20
-106.5125
 40
0.5
100
AcDbArc
 50
180
 51
270
  0
ARC
  5
10E
100
AcDbEntity
  8
0
  6
ByLayer
 62
  256
370
   -1
100
AcDbCircle
 10
16.025
 20
-106.5125
 40
0.5
100
AcDbArc
 50
270
 51
0
  0
ARC
  5
10F
100
AcDbEntity
  8
0
  6
ByLayer
 62
  256
370
   -1
100
AcDbCircle
 10
16.025
 20
-93.5125
 40
0.5
100
AcDbArc
 50
0
 51
90
  0
ARC
  5
110
100
AcDbEntity
  8
0
  6
ByLayer
 62
  256
370
   -1
100
AcDbCircle
 10
3.025
 20
-93.5125
 40
0.5
100
AcDbArc
 50
90
 51
180
  0
LINE
  5
111
100
AcDbEntity
  8
0
  6
ByLayer
 62
  256
370
   -1
100
AcDbLine
 10
3.025
 20
-107.0125
 11
16.025
 21
-107.0125
  0
LINE
  5
112
100
AcDbEntity
  8
0
  6
ByLayer
 62
  256
370
   -1
100
AcDbLine
 10
16.025
 20
-93.0125
 11
3.025
 21
-93.0125
  0
LINE
  5
113
100
AcDbEntity
  8
0
  6
ByLayer
 62
  256
370
   -1
100
AcDbLine
 10
16.525
 20
-106.5125
 11
16.525
 21
-93.5125
  0
LINE
  5
114
100
AcDbEntity
  8
0
  6
ByLayer
 62
  256
370
   -1
100
AcDbLine
 10
2.525
 20
-93.5125
 11
2.525
 21
-106.5125
  0
ARC
  5
115
100
AcDbEntity
  8
0
  6
ByLayer
 62
  256
370
   -1
100
AcDbCircle
 10
22.075
 20
-106.5125
 40
0.5
100
AcDbArc
 50
180
 51
270
  0
ARC
  5
116
100
AcDbEntity
  8
0
  6
ByLayer
 62
  256
370
   -1
100
AcDbCircle
 10
35.075
 20
-106.5125
 40
0.5
100
AcDbArc
 50
270
 51
0
  0
ARC
  5
117
100
AcDbEntity
  8
0
  6
ByLayer
 62
  256
370
   -1
100
AcDbCircle
 10
35.075
 20
-93.5125
 40
0.5
100
AcDbArc
 50
0
 51
90
  0
ARC
  5
118
100
AcDbEntity
  8
0
  6
ByLayer
 62
  256
370
   -1
100
AcDbCircle
 10
22.075
 20
-93.5125
 40
0.5
100
AcDbArc
 50
90
 51
180
  0
LINE
  5
119
100
AcDbEntity
  8
0
  6
ByLayer
 62
  256
370
   -1
100
AcDbLine
 10
22.075
 20
-107.0125
 11
35.075
 21
-107.0125
  0
LINE
  5
11A
100
AcDbEntity
  8
0
  6
ByLayer
 62
  256
370
   -1
100
AcDbLine
 10
35.075
 20
-93.0125
 11
22.075
 21
-93.0125
  0
LINE
  5
11B
100
AcDbEntity
  8
0
  6
ByLayer
 62
  256
370
   -1
100
AcDbLine
 10
35.575
 20
-106.5125
 11
35.575
 21
-93.5125
  0
LINE
  5
11C
100
AcDbEntity
  8
0
  6
ByLayer
 62
  256
370
   -1
100
AcDbLine
 10
21.575
 20
-93.5125
 11
21.575
 21
-106.5125
  0
ARC
  5
11D
100
AcDbEntity
  8
0
  6
ByLayer
 62
  256
370
   -1
100
AcDbCircle
 10
189.715
 20
-106.5125
 40
0.5
100
AcDbArc
 50
180
 51
270
  0
ARC
  5
11E
100
AcDbEntity
  8
0
  6
ByLayer
 62
  256
370
   -1
100
AcDbCircle
 10
202.715
 20
-106.5125
 40
0.5
100
AcDbArc
 50
270
 51
0
  0
ARC
  5
11F
100
AcDbEntity
  8
0
  6
ByLayer
 62
  256
370
   -1
100
AcDbCircle
 10
202.715
 20
-93.5125
 40
0.5
100
AcDbArc
 50
0
 51
90
  0
ARC
  5
120
100
AcDbEntity
  8
0
  6
ByLayer
 62
  256
370
   -1
100
AcDbCircle
 10
189.715
 20
-93.5125
 40
0.5
100
AcDbArc
 50
90
 51
180
  0
LINE
  5
121
100
AcDbEntity
  8
0
  6
ByLayer
 62
  256
370
   -1
100
AcDbLine
 10
189.715
 20
-107.0125
 11
202.715
 21
-107.0125
  0
LINE
  5
122
100
AcDbEntity
  8
0
  6
ByLayer
 62
  256
370
   -1
100
AcDbLine
 10
202.715
 20
-93.0125
 11
189.715
 21
-93.0125
  0
LINE
  5
123
100
AcDbEntity
  8
0
  6
ByLayer
 62
  256
370
   -1
100
AcDbLine
 10
203.215
 20
-106.5125
 11
203.215
 21
-93.5125
  0
LINE
  5
124
100
AcDbEntity
  8
0
  6
ByLayer
 62
  256
370
   -1
100
AcDbLine
 10
189.215
 20
-93.5125
 11
189.215
 21
-106.5125
  0
ARC
  5
125
100
AcDbEntity
  8
0
  6
ByLayer
 62
  256
370
   -1
100
AcDbCircle
 10
208.765
 20
-106.5125
 40
0.5
100
AcDbArc
 50
180
 51
270
  0
ARC
  5
126
100
AcDbEntity
  8
0
  6
ByLayer
 62
  256
370
   -1
100
AcDbCircle
 10
221.765
 20
-106.5125
 40
0.5
100
AcDbArc
 50
270
 51
0
  0
ARC
  5
127
100
AcDbEntity
  8
0
  6
ByLayer
 62
  256
370
   -1
100
AcDbCircle
 10
221.765
 20
-93.5125
 40
0.5
100
AcDbArc
 50
0
 51
90
  0
ARC
  5
128
100
AcDbEntity
  8
0
  6
ByLayer
 62
  256
370
   -1
100
AcDbCircle
 10
208.765
 20
-93.5125
 40
0.5
100
AcDbArc
 50
90
 51
180
  0
LINE
  5
129
100
AcDbEntity
  8
0
  6
ByLayer
 62
  256
370
   -1
100
AcDbLine
 10
208.765
 20
-107.0125
 11
221.765
 21
-107.0125
  0
LINE
  5
12A
100
AcDbEntity
  8
0
  6
ByLayer
 62
  256
370
   -1
100
AcDbLine
 10
221.765
 20
-93.0125
 11
208.765
 21
-93.0125
  0
LINE
  5
12B
100
AcDbEntity
  8
0
  6
ByLayer
 62
  256
370
   -1
100
AcDbLine
 10
222.265
 20
-106.5125
 11
222.265
 21
-93.5125
  0
LINE
  5
12C
100
AcDbEntity
  8
0
  6
ByLayer
 62
  256
370
   -1
100
AcDbLine
 10
208.265
 20
-93.5125
 11
208.265
 21
-106.5125
  0
ARC
  5
12D
100
AcDbEntity
  8
0
  6
ByLayer
 62
  256
370
   -1
100
AcDbCircle
 10
374.02375
 20
-118.895
 40
0.5
100
AcDbArc
 50
180
 51
270
  0
ARC
  5
12E
100
AcDbEntity
  8
0
  6
ByLayer
 62
  256
370
   -1
100
AcDbCircle
 10
387.02375
 20
-118.895
 40
0.5
100
AcDbArc
 50
270
 51
0
  0
ARC
  5
12F
100
AcDbEntity
  8
0
  6
ByLayer
 62
  256
370
   -1
100
AcDbCircle
 10
387.02375
 20
-105.895
 40
0.5
100
AcDbArc
 50
0
 51
90
  0
ARC
  5
130
100
AcDbEntity
  8
0
  6
ByLayer
 62
  256
370
   -1
100
AcDbCircle
 10
374.02375
 20
-105.895
 40
0.5
100
AcDbArc
 50
90
 51
180
  0
LINE
  5
131
100
AcDbEntity
  8
0
  6
ByLayer
 62
  256
370
   -1
100
AcDbLine
 10
374.02375
 20
-119.395
 11
387.02375
 21
-119.395
  0
LINE
  5
132
100
AcDbEntity
  8
0
  6
ByLayer
 62
  256
370
   -1
100
AcDbLine
 10
387.02375
 20
-105.395
 11
374.02375
 21
-105.395
  0
LINE
  5
133
100
AcDbEntity
  8
0
  6
ByLayer
 62
  256
370
   -1
100
AcDbLine
 10
387.52375
 20
-118.895
 11
387.52375
 21
-105.895
  0
LINE
  5
134
100
AcDbEntity
  8
0
  6
ByLayer
 62
  256
370
   -1
100
AcDbLine
 10
373.52375
 20
-105.895
 11
373.52375
 21
-118.895
  0
ARC
  5
135
100
AcDbEntity
  8
0
  6
ByLayer
 62
  256
370
   -1
100
AcDbCircle
 10
400.2175
 20
-118.895
 40
0.5
100
AcDbArc
 50
180
 51
270
  0
ARC
  5
136
100
AcDbEntity
  8
0
  6
ByLayer
 62
  256
370
   -1
100
AcDbCircle
 10
413.2175
 20
-118.895
 40
0.5
100
AcDbArc
 50
270
 51
0
  0
ARC
  5
137
100
AcDbEntity
  8
0
  6
ByLayer
 62
  256
370
   -1
100
AcDbCircle
 10
413.2175
 20
-105.895
 40
0.5
100
AcDbArc
 50
0
 51
90
  0
ARC
  5
138
100
AcDbEntity
  8
0
  6
ByLayer
 62
  256
370
   -1
100
AcDbCircle
 10
400.2175
 20
-105.895
 40
0.5
100
AcDbArc
 50
90
 51
180
  0
LINE
  5
139
100
AcDbEntity
  8
0
  6
ByLayer
 62
  256
370
   -1
100
AcDbLine
 10
400.2175
 20
-119.395
 11
413.2175
 21
-119.395
  0
LINE
  5
13A
100
AcDbEntity
  8
0
  6
ByLayer
 62
  256
370
   -1
100
AcDbLine
 10
413.2175
 20
-105.395
 11
400.2175
 21
-105.395
  0
LINE
  5
13B
100
AcDbEntity
  8
0
  6
ByLayer
 62
  256
370
   -1
100
AcDbLine
 10
413.7175
 20
-118.895
 11
413.7175
 21
-105.895
  0
LINE
  5
13C
100
AcDbEntity
  8
0
  6
ByLayer
 62
  256
370
   -1
100
AcDbLine
 10
399.7175
 20
-105.895
 11
399.7175
 21
-118.895
  0
ARC
  5
13D
100
AcDbEntity
  8
0
  6
ByLayer
 62
  256
370
   -1
100
AcDbCircle
 10
345.925
 20
-120.8
 40
0.5
100
AcDbArc
 50
180
 51
270
  0
ARC
  5
13E
100
AcDbEntity
  8
0
  6
ByLayer
 62
  256
370
   -1
100
AcDbCircle
 10
358.925
 20
-120.8
 40
0.5
100
AcDbArc
 50
270
 51
0
  0
ARC
  5
13F
100
AcDbEntity
  8
0
  6
ByLayer
 62
  256
370
   -1
100
AcDbCircle
 10
358.925
 20
-107.8
 40
0.5
100
AcDbArc
 50
0
 51
90
  0
ARC
  5
140
100
AcDbEntity
  8
0
  6
ByLayer
 62
  256
370
   -1
100
AcDbCircle
 10
345.925
 20
-107.8
 40
0.5
100
AcDbArc
 50
90
 51
180
  0
LINE
  5
141
100
AcDbEntity
  8
0
  6
ByLayer
 62
  256
370
   -1
100
AcDbLine
 10
345.925
 20
-121.3
 11
358.925
 21
-121.3
  0
LINE
  5
142
100
AcDbEntity
  8
0
  6
ByLayer
 62
  256
370
   -1
100
AcDbLine
 10
358.925
 20
-107.3
 11
345.925
 21
-107.3
  0
LINE
  5
143
100
AcDbEntity
  8
0
  6
ByLayer
 62
  256
370
   -1
100
AcDbLine
 10
359.425
 20
-120.8
 11
359.425
 21
-107.8
  0
LINE
  5
144
100
AcDbEntity
  8
0
  6
ByLayer
 62
  256
370
   -1
100
AcDbLine
 10
345.425
 20
-107.8
 11
345.425
 21
-120.8
  0
ARC
  5
145
100
AcDbEntity
  8
0
  6
ByLayer
 62
  256
370
   -1
100
AcDbCircle
 10
3.025
 20
-125.5625
 40
0.5
100
AcDbArc
 50
180
 51
270
  0
ARC
  5
146
100
AcDbEntity
  8
0
  6
ByLayer
 62
  256
370
   -1
100
AcDbCircle
 10
16.025
 20
-125.5625
 40
0.5
100
AcDbArc
 50
270
 51
0
  0
ARC
  5
147
100
AcDbEntity
  8
0
  6
ByLayer
 62
  256
370
   -1
100
AcDbCircle
 10
16.025
 20
-112.5625
 40
0.5
100
AcDbArc
 50
0
 51
90
  0
ARC
  5
148
100
AcDbEntity
  8
0
  6
ByLayer
 62
  256
370
   -1
100
AcDbCircle
 10
3.025
 20
-112.5625
 40
0.5
100
AcDbArc
 50
90
 51
180
  0
LINE
  5
149
100
AcDbEntity
  8
0
  6
ByLayer
 62
  256
370
   -1
100
AcDbLine
 10
3.025
 20
-126.0625
 11
16.025
 21
-126.0625
  0
LINE
  5
14A
100
AcDbEntity
  8
0
  6
ByLayer
 62
  256
370
   -1
100
AcDbLine
 10
16.025
 20
-112.0625
 11
3.025
 21
-112.0625
  0
LINE
  5
14B
100
AcDbEntity
  8
0
  6
ByLayer
 62
  256
370
   -1
100
AcDbLine
 10
16.525
 20
-125.5625
 11
16.525
 21
-112.5625
  0
LINE
  5
14C
100
AcDbEntity
  8
0
  6
ByLayer
 62
  256
370
   -1
100
AcDbLine
 10
2.525
 20
-112.5625
 11
2.525
 21
-125.5625
  0
ARC
  5
14D
100
AcDbEntity
  8
0
  6
ByLayer
 62
  256
370
   -1
100
AcDbCircle
 10
22.075
 20
-125.5625
 40
0.5
100
AcDbArc
 50
180
 51
270
  0
ARC
  5
14E
100
AcDbEntity
  8
0
  6
ByLayer
 62
  256
370
   -1
100
AcDbCircle
 10
35.075
 20
-125.5625
 40
0.5
100
AcDbArc
 50
270
 51
0
  0
ARC
  5
14F
100
AcDbEntity
  8
0
  6
ByLayer
 62
  256
370
   -1
100
AcDbCircle
 10
35.075
 20
-112.5625
 40
0.5
100
AcDbArc
 50
0
 51
90
  0
ARC
  5
150
100
AcDbEntity
  8
0
  6
ByLayer
 62
  256
370
   -1
100
AcDbCircle
 10
22.075
 20
-112.5625
 40
0.5
100
AcDbArc
 50
90
 51
180
  0
LINE
  5
151
100
AcDbEntity
  8
0
  6
ByLayer
 62
  256
370
   -1
100
AcDbLine
 10
22.075
 20
-126.0625
 11
35.075
 21
-126.0625
  0
LINE
  5
152
100
AcDbEntity
  8
0
  6
ByLayer
 62
  256
370
   -1
100
AcDbLine
 10
35.075
 20
-112.0625
 11
22.075
 21
-112.0625
  0
LINE
  5
153
100
AcDbEntity
  8
0
  6
ByLayer
 62
  256
370
   -1
100
AcDbLine
 10
35.575
 20
-125.5625
 11
35.575
 21
-112.5625
  0
LINE
  5
154
100
AcDbEntity
  8
0
  6
ByLayer
 62
  256
370
   -1
100
AcDbLine
 10
21.575
 20
-112.5625
 11
21.575
 21
-125.5625
  0
ARC
  5
155
100
AcDbEntity
  8
0
  6
ByLayer
 62
  256
370
   -1
100
AcDbCircle
 10
199.24
 20
-132.23
 40
0.5
100
AcDbArc
 50
180
 51
270
  0
ARC
  5
156
100
AcDbEntity
  8
0
  6
ByLayer
 62
  256
370
   -1
100
AcDbCircle
 10
212.24
 20
-132.23
 40
0.5
100
AcDbArc
 50
270
 51
0
  0
ARC
  5
157
100
AcDbEntity
  8
0
  6
ByLayer
 62
  256
370
   -1
100
AcDbCircle
 10
212.24
 20
-119.23
 40
0.5
100
AcDbArc
 50
0
 51
90
  0
ARC
  5
158
100
AcDbEntity
  8
0
  6
ByLayer
 62
  256
370
   -1
100
AcDbCircle
 10
199.24
 20
-119.23
 40
0.5
100
AcDbArc
 50
90
 51
180
  0
LINE
  5
159
100
AcDbEntity
  8
0
  6
ByLayer
 62
  256
370
   -1
100
AcDbLine
 10
199.24
 20
-132.73
 11
212.24
 21
-132.73
  0
LINE
  5
15A
100
AcDbEntity
  8
0
  6
ByLayer
 62
  256
370
   -1
100
AcDbLine
 10
212.24
 20
-118.73
 11
199.24
 21
-118.73
  0
LINE
  5
15B
100
AcDbEntity
  8
0
  6
ByLayer
 62
  256
370
   -1
100
AcDbLine
 10
212.74
 20
-132.23
 11
212.74
 21
-119.23
  0
LINE
  5
15C
100
AcDbEntity
  8
0
  6
ByLayer
 62
  256
370
   -1
100
AcDbLine
 10
198.74
 20
-119.23
 11
198.74
 21
-132.23
  0
ARC
  5
15D
100
AcDbEntity
  8
0
  6
ByLayer
 62
  256
370
   -1
100
AcDbCircle
 10
326.875
 20
-139.85
 40
0.5
100
AcDbArc
 50
180
 51
270
  0
ARC
  5
15E
100
AcDbEntity
  8
0
  6
ByLayer
 62
  256
370
   -1
100
AcDbCircle
 10
339.875
 20
-139.85
 40
0.5
100
AcDbArc
 50
270
 51
0
  0
ARC
  5
15F
100
AcDbEntity
  8
0
  6
ByLayer
 62
  256
370
   -1
100
AcDbCircle
 10
339.875
 20
-126.85
 40
0.5
100
AcDbArc
 50
0
 51
90
  0
ARC
  5
160
100
AcDbEntity
  8
0
  6
ByLayer
 62
  256
370
   -1
100
AcDbCircle
 10
326.875
 20
-126.85
 40
0.5
100
AcDbArc
 50
90
 51
180
  0
LINE
  5
161
100
AcDbEntity
  8
0
  6
ByLayer
 62
  256
370
   -1
100
AcDbLine
 10
326.875
 20
-140.35
 11
339.875
 21
-140.35
  0
LINE
  5
162
100
AcDbEntity
  8
0
  6
ByLayer
 62
  256
370
   -1
100
AcDbLine
 10
339.875
 20
-126.35
 11
326.875
 21
-126.35
  0
LINE
  5
163
100
AcDbEntity
  8
0
  6
ByLayer
 62
  256
370
   -1
100
AcDbLine
 10
340.375
 20
-139.85
 11
340.375
 21
-126.85
  0
LINE
  5
164
100
AcDbEntity
  8
0
  6
ByLayer
 62
  256
370
   -1
100
AcDbLine
 10
326.375
 20
-126.85
 11
326.375
 21
-139.85
  0
ARC
  5
165
100
AcDbEntity
  8
0
  6
ByLayer
 62
  256
370
   -1
100
AcDbCircle
 10
345.925
 20
-139.85
 40
0.5
100
AcDbArc
 50
180
 51
270
  0
ARC
  5
166
100
AcDbEntity
  8
0
  6
ByLayer
 62
  256
370
   -1
100
AcDbCircle
 10
358.925
 20
-139.85
 40
0.5
100
AcDbArc
 50
270
 51
0
  0
ARC
  5
167
100
AcDbEntity
  8
0
  6
ByLayer
 62
  256
370
   -1
100
AcDbCircle
 10
358.925
 20
-126.85
 40
0.5
100
AcDbArc
 50
0
 51
90
  0
ARC
  5
168
100
AcDbEntity
  8
0
  6
ByLayer
 62
  256
370
   -1
100
AcDbCircle
 10
345.925
 20
-126.85
 40
0.5
100
AcDbArc
 50
90
 51
180
  0
LINE
  5
169
100
AcDbEntity
  8
0
  6
ByLayer
 62
  256
370
   -1
100
AcDbLine
 10
345.925
 20
-140.35
 11
358.925
 21
-140.35
  0
LINE
  5
16A
100
AcDbEntity
  8
0
  6
ByLayer
 62
  256
370
   -1
100
AcDbLine
 10
358.925
 20
-126.35
 11
345.925
 21
-126.35
  0
LINE
  5
16B
100
AcDbEntity
  8
0
  6
ByLayer
 62
  256
370
   -1
100
AcDbLine
 10
359.425
 20
-139.85
 11
359.425
 21
-126.85
  0
LINE
  5
16C
100
AcDbEntity
  8
0
  6
ByLayer
 62
  256
370
   -1
100
AcDbLine
 10
345.425
 20
-126.85
 11
345.425
 21
-139.85
  0
ARC
  5
16D
100
AcDbEntity
  8
0
  6
ByLayer
 62
  256
370
   -1
100
AcDbCircle
 10
364.975
 20
-139.85
 40
0.5
100
AcDbArc
 50
180
 51
270
  0
ARC
  5
16E
100
AcDbEntity
  8
0
  6
ByLayer
 62
  256
370
   -1
100
AcDbCircle
 10
377.975
 20
-139.85
 40
0.5
100
AcDbArc
 50
270
 51
0
  0
ARC
  5
16F
100
AcDbEntity
  8
0
  6
ByLayer
 62
  256
370
   -1
100
AcDbCircle
 10
377.975
 20
-126.85
 40
0.5
100
AcDbArc
 50
0
 51
90
  0
ARC
  5
170
100
AcDbEntity
  8
0
  6
ByLayer
 62
  256
370
   -1
100
AcDbCircle
 10
364.975
 20
-126.85
 40
0.5
100
AcDbArc
 50
90
 51
180
  0
LINE
  5
171
100
AcDbEntity
  8
0
  6
ByLayer
 62
  256
370
   -1
100
AcDbLine
 10
364.975
 20
-140.35
 11
377.975
 21
-140.35
  0
LINE
  5
172
100
AcDbEntity
  8
0
  6
ByLayer
 62
  256
370
   -1
100
AcDbLine
 10
377.975
 20
-126.35
 11
364.975
 21
-126.35
  0
LINE
  5
173
100
AcDbEntity
  8
0
  6
ByLayer
 62
  256
370
   -1
100
AcDbLine
 10
378.475
 20
-139.85
 11
378.475
 21
-126.85
  0
LINE
  5
174
100
AcDbEntity
  8
0
  6
ByLayer
 62
  256
370
   -1
100
AcDbLine
 10
364.475
 20
-126.85
 11
364.475
 21
-139.85
  0
ARC
  5
175
100
AcDbEntity
  8
0
  6
ByLayer
 62
  256
370
   -1
100
AcDbCircle
 10
131.520446
 20
-39.462814
 40
0.5
100
AcDbArc
 50
170
 51
260
  0
ARC
  5
176
100
AcDbEntity
  8
0
  6
ByLayer
 62
  256
370
   -1
100
AcDbCircle
 10
144.322947
 20
-41.720241
 40
0.5
100
AcDbArc
 50
260
 51
350
  0
ARC
  5
177
100
AcDbEntity
  8
0
  6
ByLayer
 62
  256
370
   -1
100
AcDbCircle
 10
146.580373
 20
-28.91774
 40
0.5
100
AcDbArc
 50
350
 51
80
  0
ARC
  5
178
100
AcDbEntity
  8
0
  6
ByLayer
 62
  256
370
   -1
100
AcDbCircle
 10
133.777872
 20
-26.660314
 40
0.5
100
AcDbArc
 50
80
 51
170
  0
LINE
  5
179
100
AcDbEntity
  8
0
  6
ByLayer
 62
  256
370
   -1
100
AcDbLine
 10
131.433622
 20
-39.955218
 11
144.236123
 21
-42.212644
  0
LINE
  5
17A
100
AcDbEntity
  8
0
  6
ByLayer
 62
  256
370
   -1
100
AcDbLine
 10
146.667197
 20
-28.425336
 11
133.864696
 21
-26.16791
  0
LINE
  5
17B
100
AcDbEntity
  8
0
  6
ByLayer
 62
  256
370
   -1
100
AcDbLine
 10
144.815351
 20
-41.807065
 11
147.072777
 21
-29.004564
  0
LINE
  5
17C
100
AcDbEntity
  8
0
  6
ByLayer
 62
  256
370
   -1
100
AcDbLine
 10
133.285469
 20
-26.573489
 11
131.028042
 21
-39.37599
  0
ARC
  5
17D
100
AcDbEntity
  8
0
  6
ByLayer
 62
  256
370
   -1
100
AcDbCircle
 10
111.932859
 20
-40.844964
 40
0.5
100
AcDbArc
 50
170
 51
260
  0
ARC
  5
17E
100
AcDbEntity
  8
0
  6
ByLayer
 62
  256
370
   -1
100
AcDbCircle
 10
124.73536
 20
-43.10239
 40
0.5
100
AcDbArc
 50
260
 51
350
  0
ARC
  5
17F
100
AcDbEntity
  8
0
  6
ByLayer
 62
  256
370
   -1
100
AcDbCircle
 10
126.992786
 20
-30.29989
 40
0.5
100
AcDbArc
 50
350
 51
80
  0
ARC
  5
180
100
AcDbEntity
  8
0
  6
ByLayer
 62
  256
370
   -1
100
AcDbCircle
 10
114.190285
 20
-28.042463
 40
0.5
100
AcDbArc
 50
80
 51
170
  0
LINE
  5
181
100
AcDbEntity
  8
0
  6
ByLayer
 62
  256
370
   -1
100
AcDbLine
 10
111.846035
 20
-41.337368
 11
124.648536
 21
-43.594794
  0
LINE
  5
182
100
AcDbEntity
  8
0
  6
ByLayer
 62
  256
370
   -1
100
AcDbLine
 10
127.07961
 20
-29.807486
 11
114.277109
 21
-27.55006
  0
LINE
  5
183
100
AcDbEntity
  8
0
  6
ByLayer
 62
  256
370
   -1
100
AcDbLine
 10
125.227764
 20
-43.189215
 11
127.48519
 21
-30.386714
  0
LINE
  5
184
100
AcDbEntity
  8
0
  6
ByLayer
 62
  256
370
   -1
100
AcDbLine
 10
113.697881
 20
-27.955639
 11
111.440455
 21
-40.75814
  0
ARC
  5
185
100
AcDbEntity
  8
0
  6
ByLayer
 62
  256
370
   -1
100
AcDbCircle
 10
149.454034
 20
-47.460959
 40
0.5
100
AcDbArc
 50
170
 51
260
  0
ARC
  5
186
100
AcDbEntity
  8
0
  6
ByLayer
 62
  256
370
   -1
100
AcDbCircle
 10
162.256535
 20
-49.718385
 40
0.5
100
AcDbArc
 50
260
 51
350
  0
ARC
  5
187
100
AcDbEntity
  8
0
  6
ByLayer
 62
  256
370
   -1
100
AcDbCircle
 10
164.513961
 20
-36.915884
 40
0.5
100
AcDbArc
 50
350
 51
80
  0
ARC
  5
188
100
AcDbEntity
  8
0
  6
ByLayer
 62
  256
370
   -1
100
AcDbCircle
 10
151.71146
 20
-34.658458
 40
0.5
100
AcDbArc
 50
80
 51
170
  0
LINE
  5
189
100
AcDbEntity
  8
0
  6
ByLayer
 62
  256
370
   -1
100
AcDbLine
 10
149.36721
 20
-47.953363
 11
162.169711
 21
-50.210789
  0
LINE
  5
18A
100
AcDbEntity
  8
0
  6
ByLayer
 62
  256
370
   -1
100
AcDbLine
 10
164.600785
 20
-36.42348
 11
151.798284
 21
-34.166054
  0
LINE
  5
18B
100
AcDbEntity
  8
0
  6
ByLayer
 62
  256
370
   -1
100
AcDbLine
 10
162.748939
 20
-49.805209
 11
165.006365
 21
-37.002708
  0
LINE
  5
18C
100
AcDbEntity
  8
0
  6
ByLayer
 62
  256
370
   -1
100
AcDbLine
 10
151.219057
 20
-34.571634
 11
148.96163
 21
-47.374135
  0
ARC
  5
18D
100
AcDbEntity
  8
0
  6
ByLayer
 62
  256
370
   -1
100
AcDbCircle
 10
92.34527199999999
 20
-42.227112
 40
0.5
100
AcDbArc
 50
170
 51
260
  0
ARC
  5
18E
100
AcDbEntity
  8
0
  6
ByLayer
 62
  256
370
   -1
100
AcDbCircle
 10
105.147772
 20
-44.484538
 40
0.5
100
AcDbArc
 50
260
 51
350
  0
ARC
  5
18F
100
AcDbEntity
  8
0
  6
ByLayer
 62
  256
370
   -1
100
AcDbCircle
 10
107.405199
 20
-31.682038
 40
0.5
100
AcDbArc
 50
350
 51
80
  0
ARC
  5
190
100
AcDbEntity
  8
0
  6
ByLayer
 62
  256
370
   -1
100
AcDbCircle
 10
94.602698
 20
-29.424611
 40
0.5
100
AcDbArc
 50
80
 51
170
  0
LINE
  5
191
100
AcDbEntity
  8
0
  6
ByLayer
 62
  256
370
   -1
100
AcDbLine
 10
92.258448
 20
-42.719516
 11
105.060948
 21
-44.976942
  0
LINE
  5
192
100
AcDbEntity
  8
0
  6
ByLayer
 62
  256
370
   -1
100
AcDbLine
 10
107.492023
 20
-31.189634
 11
94.689522
 21
-28.932208
  0
LINE
  5
193
100
AcDbEntity
  8
0
  6
ByLayer
 62
  256
370
   -1
100
AcDbLine
 10
105.640176
 20
-44.571363
 11
107.897603
 21
-31.768862
  0
LINE
  5
194
100
AcDbEntity
  8
0
  6
ByLayer
 62
  256
370
   -1
100
AcDbLine
 10
94.110294
 20
-29.337787
 11
91.852868
 21
-42.140288
  0
ARC
  5
195
100
AcDbEntity
  8
0
  6
ByLayer
 62
  256
370
   -1
100
AcDbCircle
 10
167.387622
 20
-55.459103
 40
0.5
100
AcDbArc
 50
170
 51
260
  0
ARC
  5
196
100
AcDbEntity
  8
0
  6
ByLayer
 62
  256
370
   -1
100
AcDbCircle
 10
180.190123
 20
-57.716529
 40
0.5
100
AcDbArc
 50
260
 51
350
  0
ARC
  5
197
100
AcDbEntity
  8
0
  6
ByLayer
 62
  256
370
   -1
100
AcDbCircle
 10
182.447549
 20
-44.914029
 40
0.5
100
AcDbArc
 50
350
 51
80
  0
ARC
  5
198
100
AcDbEntity
  8
0
  6
ByLayer
 62
  256
370
   -1
100
AcDbCircle
 10
169.645049
 20
-42.656602
 40
0.5
100
AcDbArc
 50
80
 51
170
  0
LINE
  5
199
100
AcDbEntity
  8
0
  6
ByLayer
 62
  256
370
   -1
100
AcDbLine
 10
167.300798
 20
-55.951507
 11
180.103299
 21
-58.208933
  0
LINE
  5
19A
100
AcDbEntity
  8
0
  6
ByLayer
 62
  256
370
   -1
100
AcDbLine
 10
182.534373
 20
-44.421625
 11
169.731873
 21
-42.164198
  0
LINE
  5
19B
100
AcDbEntity
  8
0
  6
ByLayer
 62
  256
370
   -1
100
AcDbLine
 10
180.682527
 20
-57.803353
 11
182.939953
 21
-45.000853
  0
LINE
  5
19C
100
AcDbEntity
  8
0
  6
ByLayer
 62
  256
370
   -1
100
AcDbLine
 10
169.152645
 20
-42.569778
 11
166.895218
 21
-55.372279
  0
ARC
  5
19D
100
AcDbEntity
  8
0
  6
ByLayer
 62
  256
370
   -1
100
AcDbCircle
 10
72.757685
 20
-43.609262
 40
0.5
100
AcDbArc
 50
170
 51
260
  0
ARC
  5
19E
100
AcDbEntity
  8
0
  6
ByLayer
 62
  256
370
   -1
100
AcDbCircle
 10
85.560185
 20
-45.866688
 40
0.5
100
AcDbArc
 50
260
 51
350
  0
ARC
  5
19F
100
AcDbEntity
  8
0
  6
ByLayer
 62
  256
370
   -1
100
AcDbCircle
 10
87.817612
 20
-33.064188
 40
0.5
100
AcDbArc
 50
350
 51
80
  0
ARC
  5
1A0
100
AcDbEntity
  8
0
  6
ByLayer
 62
  256
370
   -1
100
AcDbCircle
 10
75.015111
 20
-30.806761
 40
0.5
100
AcDbArc
 50
80
 51
170
  0
LINE
  5
1A1
100
AcDbEntity
  8
0
  6
ByLayer
 62
  256
370
   -1
100
AcDbLine
 10
72.67086
 20
-44.101666
 11
85.473361
 21
-46.359092
  0
LINE
  5
1A2
100
AcDbEntity
  8
0
  6
ByLayer
 62
  256
370
   -1
100
AcDbLine
 10
87.904436
 20
-32.571784
 11
75.101935
 21
-30.314357
  0
LINE
  5
1A3
100
AcDbEntity
  8
0
  6
ByLayer
 62
  256
370
   -1
100
AcDbLine
 10
86.052589
 20
-45.953512
 11
88.31001500000001
 21
-33.151012
  0
LINE
  5
1A4
100
AcDbEntity
  8
0
  6
ByLayer
 62
  256
370
   -1
100
AcDbLine
 10
74.522707
 20
-30.719937
 11
72.265281
 21
-43.522438
  0
ARC
  5
1A5
100
AcDbEntity
  8
0
  6
ByLayer
 62
  256
370
   -1
100
AcDbCircle
 10
128.212448
 20
-58.223403
 40
0.5
100
AcDbArc
 50
170
 51
260
  0
ARC
  5
1A6
100
AcDbEntity
  8
0
  6
ByLayer
 62
  256
370
   -1
100
AcDbCircle
 10
141.014949
 20
-60.480829
 40
0.5
100
AcDbArc
 50
260
 51
350
  0
ARC
  5
1A7
100
AcDbEntity
  8
0
  6
ByLayer
 62
  256
370
   -1
100
AcDbCircle
 10
143.272375
 20
-47.678328
 40
0.5
100
AcDbArc
 50
350
 51
80
  0
ARC
  5
1A8
100
AcDbEntity
  8
0
  6
ByLayer
 62
  256
370
   -1
100
AcDbCircle
 10
130.469874
 20
-45.420902
 40
0.5
100
AcDbArc
 50
80
 51
170
  0
LINE
  5
1A9
100
AcDbEntity
  8
0
  6
ByLayer
 62
  256
370
   -1
100
AcDbLine
 10
128.125624
 20
-58.715807
 11
140.928125
 21
-60.973233
  0
LINE
  5
1AA
100
AcDbEntity
  8
0
  6
ByLayer
 62
  256
370
   -1
100
AcDbLine
 10
143.359199
 20
-47.185925
 11
130.556698
 21
-44.928498
  0
LINE
  5
1AB
100
AcDbEntity
  8
0
  6
ByLayer
 62
  256
370
   -1
100
AcDbLine
 10
141.507352
 20
-60.567653
 11
143.764779
 21
-47.765152
  0
LINE
  5
1AC
100
AcDbEntity
  8
0
  6
ByLayer
 62
  256
370
   -1
100
AcDbLine
 10
129.97747
 20
-45.334078
 11
127.720044
 21
-58.136579
  0
ARC
  5
1AD
100
AcDbEntity
  8
0
  6
ByLayer
 62
  256
370
   -1
100
AcDbCircle
 10
108.624861
 20
-59.605551
 40
0.5
100
AcDbArc
 50
170
 51
260
  0
ARC
  5
1AE
100
AcDbEntity
  8
0
  6
ByLayer
 62
  256
370
   -1
100
AcDbCircle
 10
121.427361
 20
-61.862977
 40
0.5
100
AcDbArc
 50
260
 51
350
  0
ARC
  5
1AF
100
AcDbEntity
  8
0
  6
ByLayer
 62
  256
370
   -1
100
AcDbCircle
 10
123.684788
 20
-49.060476
 40
0.5
100
AcDbArc
 50
350
 51
80
  0
ARC
  5
1B0
100
AcDbEntity
  8
0
  6
ByLayer
 62
  256
370
   -1
100
AcDbCircle
 10
110.882287
 20
-46.80305
 40
0.5
100
AcDbArc
 50
80
 51
170
  0
LINE
  5
1B1
100
AcDbEntity
  8
0
  6
ByLayer
 62
  256
370
   -1
100
AcDbLine
 10
108.538037
 20
-60.097955
 11
121.340537
 21
-62.355381
  0
LINE
  5
1B2
100
AcDbEntity
  8
0
  6
ByLayer
 62
  256
370
   -1
100
AcDbLine
 10
123.771612
 20
-48.568073
 11
110.969111
 21
-46.310646
  0
LINE
  5
1B3
100
AcDbEntity
  8
0
  6
ByLayer
 62
  256
370
   -1
100
AcDbLine
 10
121.919765
 20
-61.949801
 11
124.177192
 21
-49.1473
  0
LINE
  5
1B4
100
AcDbEntity
  8
0
  6
ByLayer
 62
  256
370
   -1
100
AcDbLine
 10
110.389883
 20
-46.716226
 11
108.132457
 21
-59.518727
  0
ARC
  5
1B5
100
AcDbEntity
  8
0
  6
ByLayer
 62
  256
370
   -1
100
AcDbCircle
 10
146.146036
 20
-66.221547
 40
0.5
100
AcDbArc
 50
170
 51
260
  0
ARC
  5
1B6
100
AcDbEntity
  8
0
  6
ByLayer
 62
  256
370
   -1
100
AcDbCircle
 10
158.948537
 20
-68.47897399999999
 40
0.5
100
AcDbArc
 50
260
 51
350
  0
ARC
  5
1B7
100
AcDbEntity
  8
0
  6
ByLayer
 62
  256
370
   -1
100
AcDbCircle
 10
161.205963
 20
-55.676473
 40
0.5
100
AcDbArc
 50
350
 51
80
  0
ARC
  5
1B8
100
AcDbEntity
  8
0
  6
ByLayer
 62
  256
370
   -1
100
AcDbCircle
 10
148.403462
 20
-53.419047
 40
0.5
100
AcDbArc
 50
80
 51
170
  0
LINE
  5
1B9
100
AcDbEntity
  8
0
  6
ByLayer
 62
  256
370
   -1
100
AcDbLine
 10
146.059212
 20
-66.71395099999999
 11
158.861713
 21
-68.971377
  0
LINE
  5
1BA
100
AcDbEntity
  8
0
  6
ByLayer
 62
  256
370
   -1
100
AcDbLine
 10
161.292787
 20
-55.184069
 11
148.490286
 21
-52.926643
  0
LINE
  5
1BB
100
AcDbEntity
  8
0
  6
ByLayer
 62
  256
370
   -1
100
AcDbLine
 10
159.440941
 20
-68.565798
 11
161.698367
 21
-55.763297
  0
LINE
  5
1BC
100
AcDbEntity
  8
0
  6
ByLayer
 62
  256
370
   -1
100
AcDbLine
 10
147.911058
 20
-53.332222
 11
145.653632
 21
-66.13472299999999
  0
ARC
  5
1BD
100
AcDbEntity
  8
0
  6
ByLayer
 62
  256
370
   -1
100
AcDbCircle
 10
89.037274
 20
-60.987701
 40
0.5
100
AcDbArc
 50
170
 51
260
  0
ARC
  5
1BE
100
AcDbEntity
  8
0
  6
ByLayer
 62
  256
370
   -1
100
AcDbCircle
 10
101.839774
 20
-63.245127
 40
0.5
100
AcDbArc
 50
260
 51
350
  0
ARC
  5
1BF
100
AcDbEntity
  8
0
  6
ByLayer
 62
  256
370
   -1
100
AcDbCircle
 10
104.097201
 20
-50.442626
 40
0.5
100
AcDbArc
 50
350
 51
80
  0
ARC
  5
1C0
100
AcDbEntity
  8
0
  6
ByLayer
 62
  256
370
   -1
100
AcDbCircle
 10
91.29470000000001
 20
-48.1852
 40
0.5
100
AcDbArc
 50
80
 51
170
  0
LINE
  5
1C1
100
AcDbEntity
  8
0
  6
ByLayer
 62
  256
370
   -1
100
AcDbLine
 10
88.95044900000001
 20
-61.480105
 11
101.75295
 21
-63.737531
  0
LINE
  5
1C2
100
AcDbEntity
  8
0
  6
ByLayer
 62
  256
370
   -1
100
AcDbLine
 10
104.184025
 20
-49.950222
 11
91.381524
 21
-47.692796
  0
LINE
  5
1C3
100
AcDbEntity
  8
0
  6
ByLayer
 62
  256
370
   -1
100
AcDbLine
 10
102.332178
 20
-63.331951
 11
104.589604
 21
-50.52945
  0
LINE
  5
1C4
100
AcDbEntity
  8
0
  6
ByLayer
 62
  256
370
   -1
100
AcDbLine
 10
90.802296
 20
-48.098376
 11
88.54487
 21
-60.900877
  0
ARC
  5
1C5
100
AcDbEntity
  8
0
  6
ByLayer
 62
  256
370
   -1
100
AcDbCircle
 10
164.079624
 20
-74.21969199999999
 40
0.5
100
AcDbArc
 50
170
 51
260
  0
ARC
  5
1C6
100
AcDbEntity
  8
0
  6
ByLayer
 62
  256
370
   -1
100
AcDbCircle
 10
176.882125
 20
-76.477118
 40
0.5
100
AcDbArc
 50
260
 51
350
  0
ARC
  5
1C7
100
AcDbEntity
  8
0
  6
ByLayer
 62
  256
370
   -1
100
AcDbCircle
 10
179.139551
 20
-63.674617
 40
0.5
100
AcDbArc
 50
350
 51
80
  0
ARC
  5
1C8
100
AcDbEntity
  8
0
  6
ByLayer
 62
  256
370
   -1
100
AcDbCircle
 10
166.33705
 20
-61.417191
 40
0.5
100
AcDbArc
 50
80
 51
170
  0
LINE
  5
1C9
100
AcDbEntity
  8
0
  6
ByLayer
 62
  256
370
   -1
100
AcDbLine
 10
163.9928
 20
-74.712096
 11
176.795301
 21
-76.969522
  0
LINE
  5
1CA
100
AcDbEntity
  8
0
  6
ByLayer
 62
  256
370
   -1
100
AcDbLine
 10
179.226375
 20
-63.182213
 11
166.423874
 21
-60.924787
  0
LINE
  5
1CB
100
AcDbEntity
  8
0
  6
ByLayer
 62
  256
370
   -1
100
AcDbLine
 10
177.374529
 20
-76.563942
 11
179.631955
 21
-63.761441
  0
LINE
  5
1CC
100
AcDbEntity
  8
0
  6
ByLayer
 62
  256
370
   -1
100
AcDbLine
 10
165.844646
 20
-61.330367
 11
163.58722
 21
-74.132868
  0
ARC
  5
1CD
100
AcDbEntity
  8
0
  6
ByLayer
 62
  256
370
   -1
100
AcDbCircle
 10
64.75954
 20
-61.54285
 40
0.5
100
AcDbArc
 50
170
 51
260
  0
ARC
  5
1CE
100
AcDbEntity
  8
0
  6
ByLayer
 62
  256
370
   -1
100
AcDbCircle
 10
77.56204099999999
 20
-63.800276
 40
0.5
100
AcDbArc
 50
260
 51
350
  0
ARC
  5
1CF
100
AcDbEntity
  8
0
  6
ByLayer
 62
  256
370
   -1
100
AcDbCircle
 10
79.819467
 20
-50.997776
 40
0.5
100
AcDbArc
 50
350
 51
80
  0
ARC
  5
1D0
100
AcDbEntity
  8
0
  6
ByLayer
 62
  256
370
   -1
100
AcDbCircle
 10
67.016966
 20
-48.740349
 40
0.5
100
AcDbArc
 50
80
 51
170
  0
LINE
  5
1D1
100
AcDbEntity
  8
0
  6
ByLayer
 62
  256
370
   -1
100
AcDbLine
 10
64.67271599999999
 20
-62.035254
 11
77.475217
 21
-64.29268
  0
LINE
  5
1D2
100
AcDbEntity
  8
0
  6
ByLayer
 62
  256
370
   -1
100
AcDbLine
 10
79.906291
 20
-50.505372
 11
67.10379
 21
-48.247946
  0
LINE
  5
1D3
100
AcDbEntity
  8
0
  6
ByLayer
 62
  256
370
   -1
100
AcDbLine
 10
78.054445
 20
-63.887101
 11
80.311871
 21
-51.0846
  0
LINE
  5
1D4
100
AcDbEntity
  8
0
  6
ByLayer
 62
  256
370
   -1
100
AcDbLine
 10
66.524563
 20
-48.653525
 11
64.26713599999999
 21
-61.456026
  0
ARC
  5
1D5
100
AcDbEntity
  8
0
  6
ByLayer
 62
  256
370
   -1
100
AcDbCircle
 10
124.90445
 20
-76.98399000000001
 40
0.5
100
AcDbArc
 50
170
 51
260
  0
ARC
  5
1D6
100
AcDbEntity
  8
0
  6
ByLayer
 62
  256
370
   -1
100
AcDbCircle
 10
137.70695
 20
-79.241416
 40
0.5
100
AcDbArc
 50
260
 51
350
  0
ARC
  5
1D7
100
AcDbEntity
  8
0
  6
ByLayer
 62
  256
370
   -1
100
AcDbCircle
 10
139.964377
 20
-66.43891499999999
 40
0.5
100
AcDbArc
 50
350
 51
80
  0
ARC
  5
1D8
100
AcDbEntity
  8
0
  6
ByLayer
 62
  256
370
   -1
100
AcDbCircle
 10
127.161876
 20
-64.181489
 40
0.5
100
AcDbArc
 50
80
 51
170
  0
LINE
  5
1D9
100
AcDbEntity
  8
0
  6
ByLayer
 62
  256
370
   -1
100
AcDbLine
 10
124.817626
 20
-77.476393
 11
137.620126
 21
-79.73381999999999
  0
LINE
  5
1DA
100
AcDbEntity
  8
0
  6
ByLayer
 62
  256
370
   -1
100
AcDbLine
 10
140.051201
 20
-65.946511
 11
127.2487
 21
-63.689085
  0
LINE
  5
1DB
100
AcDbEntity
  8
0
  6
ByLayer
 62
  256
370
   -1
100
AcDbLine
 10
138.199354
 20
-79.32823999999999
 11
140.456781
 21
-66.525739
  0
LINE
  5
1DC
100
AcDbEntity
  8
0
  6
ByLayer
 62
  256
370
   -1
100
AcDbLine
 10
126.669472
 20
-64.09466500000001
 11
124.412046
 21
-76.897166
  0
ARC
  5
1DD
100
AcDbEntity
  8
0
  6
ByLayer
 62
  256
370
   -1
100
AcDbCircle
 10
105.316862
 20
-78.366139
 40
0.5
100
AcDbArc
 50
170
 51
260
  0
ARC
  5
1DE
100
AcDbEntity
  8
0
  6
ByLayer
 62
  256
370
   -1
100
AcDbCircle
 10
118.119363
 20
-80.623566
 40
0.5
100
AcDbArc
 50
260
 51
350
  0
ARC
  5
1DF
100
AcDbEntity
  8
0
  6
ByLayer
 62
  256
370
   -1
100
AcDbCircle
 10
120.376789
 20
-67.821065
 40
0.5
100
AcDbArc
 50
350
 51
80
  0
ARC
  5
1E0
100
AcDbEntity
  8
0
  6
ByLayer
 62
  256
370
   -1
100
AcDbCircle
 10
107.574289
 20
-65.56363899999999
 40
0.5
100
AcDbArc
 50
80
 51
170
  0
LINE
  5
1E1
100
AcDbEntity
  8
0
  6
ByLayer
 62
  256
370
   -1
100
AcDbLine
 10
105.230038
 20
-78.858543
 11
118.032539
 21
-81.11597
  0
LINE
  5
1E2
100
AcDbEntity
  8
0
  6
ByLayer
 62
  256
370
   -1
100
AcDbLine
 10
120.463614
 20
-67.328661
 11
107.661113
 21
-65.071235
  0
LINE
  5
1E3
100
AcDbEntity
  8
0
  6
ByLayer
 62
  256
370
   -1
100
AcDbLine
 10
118.611767
 20
-80.71039
 11
120.869193
 21
-67.907889
  0
LINE
  5
1E4
100
AcDbEntity
  8
0
  6
ByLayer
 62
  256
370
   -1
100
AcDbLine
 10
107.081885
 20
-65.476815
 11
104.824459
 21
-78.279315
  0
ARC
  5
1E5
100
AcDbEntity
  8
0
  6
ByLayer
 62
  256
370
   -1
100
AcDbCircle
 10
142.838038
 20
-84.982134
 40
0.5
100
AcDbArc
 50
170
 51
260
  0
ARC
  5
1E6
100
AcDbEntity
  8
0
  6
ByLayer
 62
  256
370
   -1
100
AcDbCircle
 10
155.640538
 20
-87.23956
 40
0.5
100
AcDbArc
 50
260
 51
350
  0
ARC
  5
1E7
100
AcDbEntity
  8
0
  6
ByLayer
 62
  256
370
   -1
100
AcDbCircle
 10
157.897965
 20
-74.43706
 40
0.5
100
AcDbArc
 50
350
 51
80
  0
ARC
  5
1E8
100
AcDbEntity
  8
0
  6
ByLayer
 62
  256
370
   -1
100
AcDbCircle
 10
145.095464
 20
-72.179633
 40
0.5
100
AcDbArc
 50
80
 51
170
  0
LINE
  5
1E9
100
AcDbEntity
  8
0
  6
ByLayer
 62
  256
370
   -1
100
AcDbLine
 10
142.751214
 20
-85.474538
 11
155.553714
 21
-87.731964
  0
LINE
  5
1EA
100
AcDbEntity
  8
0
  6
ByLayer
 62
  256
370
   -1
100
AcDbLine
 10
157.984789
 20
-73.94465599999999
 11
145.182288
 21
-71.687229
  0
LINE
  5
1EB
100
AcDbEntity
  8
0
  6
ByLayer
 62
  256
370
   -1
100
AcDbLine
 10
156.132942
 20
-87.326384
 11
158.390369
 21
-74.523884
  0
LINE
  5
1EC
100
AcDbEntity
  8
0
  6
ByLayer
 62
  256
370
   -1
100
AcDbLine
 10
144.60306
 20
-72.092809
 11
142.345634
 21
-84.89530999999999
  0
ARC
  5
1ED
100
AcDbEntity
  8
0
  6
ByLayer
 62
  256
370
   -1
100
AcDbCircle
 10
85.729275
 20
-79.748287
 40
0.5
100
AcDbArc
 50
170
 51
260
  0
ARC
  5
1EE
100
AcDbEntity
  8
0
  6
ByLayer
 62
  256
370
   -1
100
AcDbCircle
 10
98.53177599999999
 20
-82.005714
 40
0.5
100
AcDbArc
 50
260
 51
350
  0
ARC
  5
1EF
100
AcDbEntity
  8
0
  6
ByLayer
 62
  256
370
   -1
100
AcDbCircle
 10
100.789202
 20
-69.20321300000001
 40
0.5
100
AcDbArc
 50
350
 51
80
  0
ARC
  5
1F0
100
AcDbEntity
  8
0
  6
ByLayer
 62
  256
370
   -1
100
AcDbCircle
 10
87.98670199999999
 20
-66.945787
 40
0.5
100
AcDbArc
 50
80
 51
170
  0
LINE
  5
1F1
100
AcDbEntity
  8
0
  6
ByLayer
 62
  256
370
   -1
100
AcDbLine
 10
85.64245099999999
 20
-80.240691
 11
98.444952
 21
-82.49811800000001
  0
LINE
  5
1F2
100
AcDbEntity
  8
0
  6
ByLayer
 62
  256
370
   -1
100
AcDbLine
 10
100.876026
 20
-68.710809
 11
88.073526
 21
-66.453383
  0
LINE
  5
1F3
100
AcDbEntity
  8
0
  6
ByLayer
 62
  256
370
   -1
100
AcDbLine
 10
99.02418
 20
-82.092538
 11
101.281606
 21
-69.290037
  0
LINE
  5
1F4
100
AcDbEntity
  8
0
  6
ByLayer
 62
  256
370
   -1
100
AcDbLine
 10
87.494298
 20
-66.858963
 11
85.23687099999999
 21
-79.661463
  0
ARC
  5
1F5
100
AcDbEntity
  8
0
  6
ByLayer
 62
  256
370
   -1
100
AcDbCircle
 10
160.771626
 20
-92.980278
 40
0.5
100
AcDbArc
 50
170
 51
260
  0
ARC
  5
1F6
100
AcDbEntity
  8
0
  6
ByLayer
 62
  256
370
   -1
100
AcDbCircle
 10
173.574127
 20
-95.23770500000001
 40
0.5
100
AcDbArc
 50
260
 51
350
  0
ARC
  5
1F7
100
AcDbEntity
  8
0
  6
ByLayer
 62
  256
370
   -1
100
AcDbCircle
 10
175.831553
 20
-82.435204
 40
0.5
100
AcDbArc
 50
350
 51
80
  0
ARC
  5
1F8
100
AcDbEntity
  8
0
  6
ByLayer
 62
  256
370
   -1
100
AcDbCircle
 10
163.029052
 20
-80.177778
 40
0.5
100
AcDbArc
 50
80
 51
170
  0
LINE
  5
1F9
100
AcDbEntity
  8
0
  6
ByLayer
 62
  256
370
   -1
100
AcDbLine
 10
160.684802
 20
-93.47268200000001
 11
173.487303
 21
-95.730109
  0
LINE
  5
1FA
100
AcDbEntity
  8
0
  6
ByLayer
 62
  256
370
   -1
100
AcDbLine
 10
175.918377
 20
-81.94280000000001
 11
163.115876
 21
-79.685374
  0
LINE
  5
1FB
100
AcDbEntity
  8
0
  6
ByLayer
 62
  256
370
   -1
100
AcDbLine
 10
174.06653
 20
-95.324529
 11
176.323957
 21
-82.52202800000001
  0
LINE
  5
1FC
100
AcDbEntity
  8
0
  6
ByLayer
 62
  256
370
   -1
100
AcDbLine
 10
162.536648
 20
-80.090954
 11
160.279222
 21
-92.89345400000001
  0
ARC
  5
1FD
100
AcDbEntity
  8
0
  6
ByLayer
 62
  256
370
   -1
100
AcDbCircle
 10
54.416322
 20
-79.062939
 40
0.5
100
AcDbArc
 50
170
 51
260
  0
ARC
  5
1FE
100
AcDbEntity
  8
0
  6
ByLayer
 62
  256
370
   -1
100
AcDbCircle
 10
67.218822
 20
-81.320365
 40
0.5
100
AcDbArc
 50
260
 51
350
  0
ARC
  5
1FF
100
AcDbEntity
  8
0
  6
ByLayer
 62
  256
370
   -1
100
AcDbCircle
 10
69.476249
 20
-68.517864
 40
0.5
100
AcDbArc
 50
350
 51
80
  0
ARC
  5
200
100
AcDbEntity
  8
0
  6
ByLayer
 62
  256
370
   -1
100
AcDbCircle
 10
56.673748
 20
-66.26043799999999
 40
0.5
100
AcDbArc
 50
80
 51
170
  0
LINE
  5
201
100
AcDbEntity
  8
0
  6
ByLayer
 62
  256
370
   -1
100
AcDbLine
 10
54.329498
 20
-79.55534299999999
 11
67.131998
 21
-81.812769
  0
LINE
  5
202
100
AcDbEntity
  8
0
  6
ByLayer
 62
  256
370
   -1
100
AcDbLine
 10
69.563073
 20
-68.02546100000001
 11
56.760572
 21
-65.768034
  0
LINE
  5
203
100
AcDbEntity
  8
0
  6
ByLayer
 62
  256
370
   -1
100
AcDbLine
 10
67.711226
 20
-81.407189
 11
69.968653
 21
-68.604688
  0
LINE
  5
204
100
AcDbEntity
  8
0
  6
ByLayer
 62
  256
370
   -1
100
AcDbLine
 10
56.181344
 20
-66.173614
 11
53.923918
 21
-78.97611499999999
  0
ARC
  5
205
100
AcDbEntity
  8
0
  6
ByLayer
 62
  256
370
   -1
100
AcDbCircle
 10
121.596451
 20
-95.744578
 40
0.5
100
AcDbArc
 50
170
 51
260
  0
ARC
  5
206
100
AcDbEntity
  8
0
  6
ByLayer
 62
  256
370
   -1
100
AcDbCircle
 10
134.398952
 20
-98.002004
 40
0.5
100
AcDbArc
 50
260
 51
350
  0
ARC
  5
207
100
AcDbEntity
  8
0
  6
ByLayer
 62
  256
370
   -1
100
AcDbCircle
 10
136.656378
 20
-85.199504
 40
0.5
100
AcDbArc
 50
350
 51
80
  0
ARC
  5
208
100
AcDbEntity
  8
0
  6
ByLayer
 62
  256
370
   -1
100
AcDbCircle
 10
123.853878
 20
-82.942077
 40
0.5
100
AcDbArc
 50
80
 51
170
  0
LINE
  5
209
100
AcDbEntity
  8
0
  6
ByLayer
 62
  256
370
   -1
100
AcDbLine
 10
121.509627
 20
-96.236982
 11
134.312128
 21
-98.49440800000001
  0
LINE
  5
20A
100
AcDbEntity
  8
0
  6
ByLayer
 62
  256
370
   -1
100
AcDbLine
 10
136.743203
 20
-84.7071
 11
123.940702
 21
-82.449674
  0
LINE
  5
20B
100
AcDbEntity
  8
0
  6
ByLayer
 62
  256
370
   -1
100
AcDbLine
 10
134.891356
 20
-98.088829
 11
137.148782
 21
-85.286328
  0
LINE
  5
20C
100
AcDbEntity
  8
0
  6
ByLayer
 62
  256
370
   -1
100
AcDbLine
 10
123.361474
 20
-82.855253
 11
121.104048
 21
-95.657754
  0
ARC
  5
20D
100
AcDbEntity
  8
0
  6
ByLayer
 62
  256
370
   -1
100
AcDbCircle
 10
102.008864
 20
-97.12672600000001
 40
0.5
100
AcDbArc
 50
170
 51
260
  0
ARC
  5
20E
100
AcDbEntity
  8
0
  6
ByLayer
 62
  256
370
   -1
100
AcDbCircle
 10
114.811365
 20
-99.384152
 40
0.5
100
AcDbArc
 50
260
 51
350
  0
ARC
  5
20F
100
AcDbEntity
  8
0
  6
ByLayer
 62
  256
370
   -1
100
AcDbCircle
 10
117.068791
 20
-86.58165200000001
 40
0.5
100
AcDbArc
 50
350
 51
80
  0
ARC
  5
210
100
AcDbEntity
  8
0
  6
ByLayer
 62
  256
370
   -1
100
AcDbCircle
 10
104.266291
 20
-84.324225
 40
0.5
100
AcDbArc
 50
80
 51
170
  0
LINE
  5
211
100
AcDbEntity
  8
0
  6
ByLayer
 62
  256
370
   -1
100
AcDbLine
 10
101.92204
 20
-97.61913
 11
114.724541
 21
-99.87655599999999
  0
LINE
  5
212
100
AcDbEntity
  8
0
  6
ByLayer
 62
  256
370
   -1
100
AcDbLine
 10
117.155615
 20
-86.089248
 11
104.353115
 21
-83.831822
  0
LINE
  5
213
100
AcDbEntity
  8
0
  6
ByLayer
 62
  256
370
   -1
100
AcDbLine
 10
115.303769
 20
-99.470977
 11
117.561195
 21
-86.668476
  0
LINE
  5
214
100
AcDbEntity
  8
0
  6
ByLayer
 62
  256
370
   -1
100
AcDbLine
 10
103.773887
 20
-84.23740100000001
 11
101.51646
 21
-97.039902
  0
ARC
  5
215
100
AcDbEntity
  8
0
  6
ByLayer
 62
  256
370
   -1
100
AcDbCircle
 10
139.53004
 20
-103.742723
 40
0.5
100
AcDbArc
 50
170
 51
260
  0
ARC
  5
216
100
AcDbEntity
  8
0
  6
ByLayer
 62
  256
370
   -1
100
AcDbCircle
 10
152.33254
 20
-106.000149
 40
0.5
100
AcDbArc
 50
260
 51
350
  0
ARC
  5
217
100
AcDbEntity
  8
0
  6
ByLayer
 62
  256
370
   -1
100
AcDbCircle
 10
154.589967
 20
-93.197648
 40
0.5
100
AcDbArc
 50
350
 51
80
  0
ARC
  5
218
100
AcDbEntity
  8
0
  6
ByLayer
 62
  256
370
   -1
100
AcDbCircle
 10
141.787466
 20
-90.94022200000001
 40
0.5
100
AcDbArc
 50
80
 51
170
  0
LINE
  5
219
100
AcDbEntity
  8
0
  6
ByLayer
 62
  256
370
   -1
100
AcDbLine
 10
139.443215
 20
-104.235126
 11
152.245716
 21
-106.492553
  0
LINE
  5
21A
100
AcDbEntity
  8
0
  6
ByLayer
 62
  256
370
   -1
100
AcDbLine
 10
154.676791
 20
-92.70524399999999
 11
141.87429
 21
-90.447818
  0
LINE
  5
21B
100
AcDbEntity
  8
0
  6
ByLayer
 62
  256
370
   -1
100
AcDbLine
 10
152.824944
 20
-106.086973
 11
155.08237
 21
-93.28447199999999
  0
LINE
  5
21C
100
AcDbEntity
  8
0
  6
ByLayer
 62
  256
370
   -1
100
AcDbLine
 10
141.295062
 20
-90.853398
 11
139.037636
 21
-103.655899
  0
ARC
  5
21D
100
AcDbEntity
  8
0
  6
ByLayer
 62
  256
370
   -1
100
AcDbCircle
 10
82.421277
 20
-98.508876
 40
0.5
100
AcDbArc
 50
170
 51
260
  0
ARC
  5
21E
100
AcDbEntity
  8
0
  6
ByLayer
 62
  256
370
   -1
100
AcDbCircle
 10
95.223778
 20
-100.766302
 40
0.5
100
AcDbArc
 50
260
 51
350
  0
ARC
  5
21F
100
AcDbEntity
  8
0
  6
ByLayer
 62
  256
370
   -1
100
AcDbCircle
 10
97.48120400000001
 20
-87.963802
 40
0.5
100
AcDbArc
 50
350
 51
80
  0
ARC
  5
220
100
AcDbEntity
  8
0
  6
ByLayer
 62
  256
370
   -1
100
AcDbCircle
 10
84.678703
 20
-85.70637499999999
 40
0.5
100
AcDbArc
 50
80
 51
170
  0
LINE
  5
221
100
AcDbEntity
  8
0
  6
ByLayer
 62
  256
370
   -1
100
AcDbLine
 10
82.334453
 20
-99.00127999999999
 11
95.136954
 21
-101.258706
  0
LINE
  5
222
100
AcDbEntity
  8
0
  6
ByLayer
 62
  256
370
   -1
100
AcDbLine
 10
97.568028
 20
-87.47139799999999
 11
84.76552700000001
 21
-85.213971
  0
LINE
  5
223
100
AcDbEntity
  8
0
  6
ByLayer
 62
  256
370
   -1
100
AcDbLine
 10
95.716182
 20
-100.853126
 11
97.973608
 21
-88.05062599999999
  0
LINE
  5
224
100
AcDbEntity
  8
0
  6
ByLayer
 62
  256
370
   -1
100
AcDbLine
 10
84.18629900000001
 20
-85.619551
 11
81.928873
 21
-98.42205199999999
  0
ARC
  5
225
100
AcDbEntity
  8
0
  6
ByLayer
 62
  256
370
   -1
100
AcDbCircle
 10
157.463628
 20
-111.740867
 40
0.5
100
AcDbArc
 50
170
 51
260
  0
ARC
  5
226
100
AcDbEntity
  8
0
  6
ByLayer
 62
  256
370
   -1
100
AcDbCircle
 10
170.266128
 20
-113.998293
 40
0.5
100
AcDbArc
 50
260
 51
350
  0
ARC
  5
227
100
AcDbEntity
  8
0
  6
ByLayer
 62
  256
370
   -1
100
AcDbCircle
 10
172.523555
 20
-101.195793
 40
0.5
100
AcDbArc
 50
350
 51
80
  0
ARC
  5
228
100
AcDbEntity
  8
0
  6
ByLayer
 62
  256
370
   -1
100
AcDbCircle
 10
159.721054
 20
-98.938366
 40
0.5
100
AcDbArc
 50
80
 51
170
  0
LINE
  5
229
100
AcDbEntity
  8
0
  6
ByLayer
 62
  256
370
   -1
100
AcDbLine
 10
157.376804
 20
-112.233271
 11
170.179304
 21
-114.490697
  0
LINE
  5
22A
100
AcDbEntity
  8
0
  6
ByLayer
 62
  256
370
   -1
100
AcDbLine
 10
172.610379
 20
-100.703389
 11
159.807878
 21
-98.44596199999999
  0
LINE
  5
22B
100
AcDbEntity
  8
0
  6
ByLayer
 62
  256
370
   -1
100
AcDbLine
 10
170.758532
 20
-114.085117
 11
173.015959
 21
-101.282617
  0
LINE
  5
22C
100
AcDbEntity
  8
0
  6
ByLayer
 62
  256
370
   -1
100
AcDbLine
 10
159.22865
 20
-98.85154199999999
 11
156.971224
 21
-111.654043
  0
ARC
  5
22D
100
AcDbEntity
  8
0
  6
ByLayer
 62
  256
370
   -1
100
AcDbCircle
 10
55.79847
 20
-98.650526
 40
0.5
100
AcDbArc
 50
170
 51
260
  0
ARC
  5
22E
100
AcDbEntity
  8
0
  6
ByLayer
 62
  256
370
   -1
100
AcDbCircle
 10
68.60097
 20
-100.907952
 40
0.5
100
AcDbArc
 50
260
 51
350
  0
ARC
  5
22F
100
AcDbEntity
  8
0
  6
ByLayer
 62
  256
370
   -1
100
AcDbCircle
 10
70.858397
 20
-88.105452
 40
0.5
100
AcDbArc
 50
350
 51
80
  0
ARC
  5
230
100
AcDbEntity
  8
0
  6
ByLayer
 62
  256
370
   -1
100
AcDbCircle
 10
58.055896
 20
-85.84802500000001
 40
0.5
100
AcDbArc
 50
80
 51
170
  0
LINE
  5
231
100
AcDbEntity
  8
0
  6
ByLayer
 62
  256
370
   -1
100
AcDbLine
 10
55.711646
 20
-99.14293000000001
 11
68.514146
 21
-101.400356
  0
LINE
  5
232
100
AcDbEntity
  8
0
  6
ByLayer
 62
  256
370
   -1
100
AcDbLine
 10
70.945221
 20
-87.61304800000001
 11
58.14272
 21
-85.355621
  0
LINE
  5
233
100
AcDbEntity
  8
0
  6
ByLayer
 62
  256
370
   -1
100
AcDbLine
 10
69.093374
 20
-100.994776
 11
71.350801
 21
-88.19227600000001
  0
LINE
  5
234
100
AcDbEntity
  8
0
  6
ByLayer
 62
  256
370
   -1
100
AcDbLine
 10
57.563492
 20
-85.761201
 11
55.306066
 21
-98.56370200000001
  0
ARC
  5
235
100
AcDbEntity
  8
0
  6
ByLayer
 62
  256
370
   -1
100
AcDbCircle
 10
228.506907
 20
-133.939653
 40
0.5
100
AcDbArc
 50
170
 51
260
  0
ARC
  5
236
100
AcDbEntity
  8
0
  6
ByLayer
 62
  256
370
   -1
100
AcDbCircle
 10
241.309408
 20
-136.197079
 40
0.5
100
AcDbArc
 50
260
 51
350
  0
ARC
  5
237
100
AcDbEntity
  8
0
  6
ByLayer
 62
  256
370
   -1
100
AcDbCircle
 10
243.566834
 20
-123.394578
 40
0.5
100
AcDbArc
 50
350
 51
80
  0
ARC
  5
238
100
AcDbEntity
  8
0
  6
ByLayer
 62
  256
370
   -1
100
AcDbCircle
 10
230.764333
 20
-121.137152
 40
0.5
100
AcDbArc
 50
80
 51
170
  0
LINE
  5
239
100
AcDbEntity
  8
0
  6
ByLayer
 62
  256
370
   -1
100
AcDbLine
 10
228.420083
 20
-134.432057
 11
241.222584
 21
-136.689483
  0
LINE
  5
23A
100
AcDbEntity
  8
0
  6
ByLayer
 62
  256
370
   -1
100
AcDbLine
 10
243.653658
 20
-122.902175
 11
230.851157
 21
-120.644748
  0
LINE
  5
23B
100
AcDbEntity
  8
0
  6
ByLayer
 62
  256
370
   -1
100
AcDbLine
 10
241.801812
 20
-136.283903
 11
244.059238
 21
-123.481402
  0
LINE
  5
23C
100
AcDbEntity
  8
0
  6
ByLayer
 62
  256
370
   -1
100
AcDbLine
 10
230.271929
 20
-121.050328
 11
228.014503
 21
-133.852829
  0
ARC
  5
23D
100
AcDbEntity
  8
0
  6
ByLayer
 62
  256
370
   -1
100
AcDbCircle
 10
105.736088
 20
-117.127813
 40
0.5
100
AcDbArc
 50
170
 51
260
  0
ARC
  5
23E
100
AcDbEntity
  8
0
  6
ByLayer
 62
  256
370
   -1
100
AcDbCircle
 10
118.538589
 20
-119.385239
 40
0.5
100
AcDbArc
 50
260
 51
350
  0
ARC
  5
23F
100
AcDbEntity
  8
0
  6
ByLayer
 62
  256
370
   -1
100
AcDbCircle
 10
120.796015
 20
-106.582738
 40
0.5
100
AcDbArc
 50
350
 51
80
  0
ARC
  5
240
100
AcDbEntity
  8
0
  6
ByLayer
 62
  256
370
   -1
100
AcDbCircle
 10
107.993515
 20
-104.325312
 40
0.5
100
AcDbArc
 50
80
 51
170
  0
LINE
  5
241
100
AcDbEntity
  8
0
  6
ByLayer
 62
  256
370
   -1
100
AcDbLine
 10
105.649264
 20
-117.620217
 11
118.451765
 21
-119.877643
  0
LINE
  5
242
100
AcDbEntity
  8
0
  6
ByLayer
 62
  256
370
   -1
100
AcDbLine
 10
120.882839
 20
-106.090334
 11
108.080339
 21
-103.832908
  0
LINE
  5
243
100
AcDbEntity
  8
0
  6
ByLayer
 62
  256
370
   -1
100
AcDbLine
 10
119.030993
 20
-119.472063
 11
121.288419
 21
-106.669562
  0
LINE
  5
244
100
AcDbEntity
  8
0
  6
ByLayer
 62
  256
370
   -1
100
AcDbLine
 10
107.501111
 20
-104.238488
 11
105.243684
 21
-117.040989
  0
ARC
  5
245
100
AcDbEntity
  8
0
  6
ByLayer
 62
  256
370
   -1
100
AcDbCircle
 10
81.458353
 20
-117.682964
 40
0.5
100
AcDbArc
 50
170
 51
260
  0
ARC
  5
246
100
AcDbEntity
  8
0
  6
ByLayer
 62
  256
370
   -1
100
AcDbCircle
 10
94.26085399999999
 20
-119.94039
 40
0.5
100
AcDbArc
 50
260
 51
350
  0
ARC
  5
247
100
AcDbEntity
  8
0
  6
ByLayer
 62
  256
370
   -1
100
AcDbCircle
 10
96.51828
 20
-107.137889
 40
0.5
100
AcDbArc
 50
350
 51
80
  0
ARC
  5
248
100
AcDbEntity
  8
0
  6
ByLayer
 62
  256
370
   -1
100
AcDbCircle
 10
83.715779
 20
-104.880463
 40
0.5
100
AcDbArc
 50
80
 51
170
  0
LINE
  5
249
100
AcDbEntity
  8
0
  6
ByLayer
 62
  256
370
   -1
100
AcDbLine
 10
81.371529
 20
-118.175368
 11
94.17403
 21
-120.432794
  0
LINE
  5
24A
100
AcDbEntity
  8
0
  6
ByLayer
 62
  256
370
   -1
100
AcDbLine
 10
96.605104
 20
-106.645486
 11
83.802603
 21
-104.388059
  0
LINE
  5
24B
100
AcDbEntity
  8
0
  6
ByLayer
 62
  256
370
   -1
100
AcDbLine
 10
94.753258
 20
-120.027214
 11
97.010684
 21
-107.224713
  0
LINE
  5
24C
100
AcDbEntity
  8
0
  6
ByLayer
 62
  256
370
   -1
100
AcDbLine
 10
83.223375
 20
-104.793639
 11
80.96594899999999
 21
-117.59614
  0
ARC
  5
24D
100
AcDbEntity
  8
0
  6
ByLayer
 62
  256
370
   -1
100
AcDbCircle
 10
57.18062
 20
-118.238113
 40
0.5
100
AcDbArc
 50
170
 51
260
  0
ARC
  5
24E
100
AcDbEntity
  8
0
  6
ByLayer
 62
  256
370
   -1
100
AcDbCircle
 10
69.98312
 20
-120.49554
 40
0.5
100
AcDbArc
 50
260
 51
350
  0
ARC
  5
24F
100
AcDbEntity
  8
0
  6
ByLayer
 62
  256
370
   -1
100
AcDbCircle
 10
72.24054700000001
 20
-107.693039
 40
0.5
100
AcDbArc
 50
350
 51
80
  0
ARC
  5
250
100
AcDbEntity
  8
0
  6
ByLayer
 62
  256
370
   -1
100
AcDbCircle
 10
59.438046
 20
-105.435613
 40
0.5
100
AcDbArc
 50
80
 51
170
  0
LINE
  5
251
100
AcDbEntity
  8
0
  6
ByLayer
 62
  256
370
   -1
100
AcDbLine
 10
57.093795
 20
-118.730517
 11
69.89629600000001
 21
-120.987943
  0
LINE
  5
252
100
AcDbEntity
  8
0
  6
ByLayer
 62
  256
370
   -1
100
AcDbLine
 10
72.327371
 20
-107.200635
 11
59.52487
 21
-104.943209
  0
LINE
  5
253
100
AcDbEntity
  8
0
  6
ByLayer
 62
  256
370
   -1
100
AcDbLine
 10
70.47552399999999
 20
-120.582364
 11
72.73295
 21
-107.779863
  0
LINE
  5
254
100
AcDbEntity
  8
0
  6
ByLayer
 62
  256
370
   -1
100
AcDbLine
 10
58.945642
 20
-105.348788
 11
56.688216
 21
-118.151289
  0
ARC
  5
255
100
AcDbEntity
  8
0
  6
ByLayer
 62
  256
370
   -1
100
AcDbCircle
 10
266.744535
 20
-41.777492
 40
0.5
100
AcDbArc
 50
190
 51
280
  0
ARC
  5
256
100
AcDbEntity
  8
0
  6
ByLayer
 62
  256
370
   -1
100
AcDbCircle
 10
279.547036
 20
-39.520065
 40
0.5
100
AcDbArc
 50
280
 51
10
  0
ARC
  5
257
100
AcDbEntity
  8
0
  6
ByLayer
 62
  256
370
   -1
100
AcDbCircle
 10
277.289609
 20
-26.717565
 40
0.5
100
AcDbArc
 50
10
 51
100
  0
ARC
  5
258
100
AcDbEntity
  8
0
  6
ByLayer
 62
  256
370
   -1
100
AcDbCircle
 10
264.487109
 20
-28.974991
 40
0.5
100
AcDbArc
 50
100
 51
190
  0
LINE
  5
259
100
AcDbEntity
  8
0
  6
ByLayer
 62
  256
370
   -1
100
AcDbLine
 10
266.831359
 20
-42.269895
 11
279.63386
 21
-40.012469
  0
LINE
  5
25A
100
AcDbEntity
  8
0
  6
ByLayer
 62
  256
370
   -1
100
AcDbLine
 10
277.202785
 20
-26.225161
 11
264.400285
 21
-28.482587
  0
LINE
  5
25B
100
AcDbEntity
  8
0
  6
ByLayer
 62
  256
370
   -1
100
AcDbLine
 10
280.03944
 20
-39.433241
 11
277.782013
 21
-26.63074
  0
LINE
  5
25C
100
AcDbEntity
  8
0
  6
ByLayer
 62
  256
370
   -1
100
AcDbLine
 10
263.994705
 20
-29.061815
 11
266.252131
 21
-41.864316
  0
ARC
  5
25D
100
AcDbEntity
  8
0
  6
ByLayer
 62
  256
370
   -1
100
AcDbCircle
 10
248.810947
 20
-49.775636
 40
0.5
100
AcDbArc
 50
190
 51
280
  0
ARC
  5
25E
100
AcDbEntity
  8
0
  6
ByLayer
 62
  256
370
   -1
100
AcDbCircle
 10
261.613448
 20
-47.51821
 40
0.5
100
AcDbArc
 50
280
 51
10
  0
ARC
  5
25F
100
AcDbEntity
  8
0
  6
ByLayer
 62
  256
370
   -1
100
AcDbCircle
 10
259.356021
 20
-34.715709
 40
0.5
100
AcDbArc
 50
10
 51
100
  0
ARC
  5
260
100
AcDbEntity
  8
0
  6
ByLayer
 62
  256
370
   -1
100
AcDbCircle
 10
246.553521
 20
-36.973135
 40
0.5
100
AcDbArc
 50
100
 51
190
  0
LINE
  5
261
100
AcDbEntity
  8
0
  6
ByLayer
 62
  256
370
   -1
100
AcDbLine
 10
248.897771
 20
-50.26804
 11
261.700272
 21
-48.010614
  0
LINE
  5
262
100
AcDbEntity
  8
0
  6
ByLayer
 62
  256
370
   -1
100
AcDbLine
 10
259.269197
 20
-34.223305
 11
246.466696
 21
-36.480731
  0
LINE
  5
263
100
AcDbEntity
  8
0
  6
ByLayer
 62
  256
370
   -1
100
AcDbLine
 10
262.105851
 20
-47.431386
 11
259.848425
 21
-34.628885
  0
LINE
  5
264
100
AcDbEntity
  8
0
  6
ByLayer
 62
  256
370
   -1
100
AcDbLine
 10
246.061117
 20
-37.059959
 11
248.318543
 21
-49.86246
  0
ARC
  5
265
100
AcDbEntity
  8
0
  6
ByLayer
 62
  256
370
   -1
100
AcDbCircle
 10
286.332122
 20
-43.159641
 40
0.5
100
AcDbArc
 50
190
 51
280
  0
ARC
  5
266
100
AcDbEntity
  8
0
  6
ByLayer
 62
  256
370
   -1
100
AcDbCircle
 10
299.134623
 20
-40.902215
 40
0.5
100
AcDbArc
 50
280
 51
10
  0
ARC
  5
267
100
AcDbEntity
  8
0
  6
ByLayer
 62
  256
370
   -1
100
AcDbCircle
 10
296.877197
 20
-28.099714
 40
0.5
100
AcDbArc
 50
10
 51
100
  0
ARC
  5
268
100
AcDbEntity
  8
0
  6
ByLayer
 62
  256
370
   -1
100
AcDbCircle
 10
284.074696
 20
-30.357141
 40
0.5
100
AcDbArc
 50
100
 51
190
  0
LINE
  5
269
100
AcDbEntity
  8
0
  6
ByLayer
 62
  256
370
   -1
100
AcDbLine
 10
286.418946
 20
-43.652045
 11
299.221447
 21
-41.394619
  0
LINE
  5
26A
100
AcDbEntity
  8
0
  6
ByLayer
 62
  256
370
   -1
100
AcDbLine
 10
296.790373
 20
-27.607311
 11
283.987872
 21
-29.864737
  0
LINE
  5
26B
100
AcDbEntity
  8
0
  6
ByLayer
 62
  256
370
   -1
100
AcDbLine
 10
299.627027
 20
-40.815391
 11
297.3696
 21
-28.01289
  0
LINE
  5
26C
100
AcDbEntity
  8
0
  6
ByLayer
 62
  256
370
   -1
100
AcDbLine
 10
283.582292
 20
-30.443965
 11
285.839718
 21
-43.246466
  0
ARC
  5
26D
100
AcDbEntity
  8
0
  6
ByLayer
 62
  256
370
   -1
100
AcDbCircle
 10
230.877357
 20
-57.77378
 40
0.5
100
AcDbArc
 50
190
 51
280
  0
ARC
  5
26E
100
AcDbEntity
  8
0
  6
ByLayer
 62
  256
370
   -1
100
AcDbCircle
 10
243.679858
 20
-55.516354
 40
0.5
100
AcDbArc
 50
280
 51
10
  0
ARC
  5
26F
100
AcDbEntity
  8
0
  6
ByLayer
 62
  256
370
   -1
100
AcDbCircle
 10
241.422431
 20
-42.713853
 40
0.5
100
AcDbArc
 50
10
 51
100
  0
ARC
  5
270
100
AcDbEntity
  8
0
  6
ByLayer
 62
  256
370
   -1
100
AcDbCircle
 10
228.619931
 20
-44.97128
 40
0.5
100
AcDbArc
 50
100
 51
190
  0
LINE
  5
271
100
AcDbEntity
  8
0
  6
ByLayer
 62
  256
370
   -1
100
AcDbLine
 10
230.964181
 20
-58.266184
 11
243.766682
 21
-56.008758
  0
LINE
  5
272
100
AcDbEntity
  8
0
  6
ByLayer
 62
  256
370
   -1
100
AcDbLine
 10
241.335607
 20
-42.221449
 11
228.533106
 21
-44.478876
  0
LINE
  5
273
100
AcDbEntity
  8
0
  6
ByLayer
 62
  256
370
   -1
100
AcDbLine
 10
244.172261
 20
-55.42953
 11
241.914835
 21
-42.627029
  0
LINE
  5
274
100
AcDbEntity
  8
0
  6
ByLayer
 62
  256
370
   -1
100
AcDbLine
 10
228.127527
 20
-45.058104
 11
230.384953
 21
-57.860604
  0
ARC
  5
275
100
AcDbEntity
  8
0
  6
ByLayer
 62
  256
370
   -1
100
AcDbCircle
 10
310.609856
 20
-43.714791
 40
0.5
100
AcDbArc
 50
190
 51
280
  0
ARC
  5
276
100
AcDbEntity
  8
0
  6
ByLayer
 62
  256
370
   -1
100
AcDbCircle
 10
323.412356
 20
-41.457365
 40
0.5
100
AcDbArc
 50
280
 51
10
  0
ARC
  5
277
100
AcDbEntity
  8
0
  6
ByLayer
 62
  256
370
   -1
100
AcDbCircle
 10
321.15493
 20
-28.654864
 40
0.5
100
AcDbArc
 50
10
 51
100
  0
ARC
  5
278
100
AcDbEntity
  8
0
  6
ByLayer
 62
  256
370
   -1
100
AcDbCircle
 10
308.352429
 20
-30.91229
 40
0.5
100
AcDbArc
 50
100
 51
190
  0
LINE
  5
279
100
AcDbEntity
  8
0
  6
ByLayer
 62
  256
370
   -1
100
AcDbLine
 10
310.69668
 20
-44.207195
 11
323.49918
 21
-41.949768
  0
LINE
  5
27A
100
AcDbEntity
  8
0
  6
ByLayer
 62
  256
370
   -1
100
AcDbLine
 10
321.068106
 20
-28.16246
 11
308.265605
 21
-30.419886
  0
LINE
  5
27B
100
AcDbEntity
  8
0
  6
ByLayer
 62
  256
370
   -1
100
AcDbLine
 10
323.90476
 20
-41.370541
 11
321.647334
 21
-28.56804
  0
LINE
  5
27C
100
AcDbEntity
  8
0
  6
ByLayer
 62
  256
370
   -1
100
AcDbLine
 10
307.860025
 20
-30.999114
 11
310.117452
 21
-43.801615
  0
ARC
  5
27D
100
AcDbEntity
  8
0
  6
ByLayer
 62
  256
370
   -1
100
AcDbCircle
 10
270.052531
 20
-60.53808
 40
0.5
100
AcDbArc
 50
190
 51
280
  0
ARC
  5
27E
100
AcDbEntity
  8
0
  6
ByLayer
 62
  256
370
   -1
100
AcDbCircle
 10
282.855032
 20
-58.280654
 40
0.5
100
AcDbArc
 50
280
 51
10
  0
ARC
  5
27F
100
AcDbEntity
  8
0
  6
ByLayer
 62
  256
370
   -1
100
AcDbCircle
 10
280.597606
 20
-45.478153
 40
0.5
100
AcDbArc
 50
10
 51
100
  0
ARC
  5
280
100
AcDbEntity
  8
0
  6
ByLayer
 62
  256
370
   -1
100
AcDbCircle
 10
267.795105
 20
-47.735579
 40
0.5
100
AcDbArc
 50
100
 51
190
  0
LINE
  5
281
100
AcDbEntity
  8
0
  6
ByLayer
 62
  256
370
   -1
100
AcDbLine
 10
270.139355
 20
-61.030484
 11
282.941856
 21
-58.773058
  0
LINE
  5
282
100
AcDbEntity
  8
0
  6
ByLayer
 62
  256
370
   -1
100
AcDbLine
 10
280.510782
 20
-44.985749
 11
267.708281
 21
-47.243176
  0
LINE
  5
283
100
AcDbEntity
  8
0
  6
ByLayer
 62
  256
370
   -1
100
AcDbLine
 10
283.347436
 20
-58.19383
 11
281.09001
 21
-45.391329
  0
LINE
  5
284
100
AcDbEntity
  8
0
  6
ByLayer
 62
  256
370
   -1
100
AcDbLine
 10
267.302701
 20
-47.822403
 11
269.560127
 21
-60.624904
  0
ARC
  5
285
100
AcDbEntity
  8
0
  6
ByLayer
 62
  256
370
   -1
100
AcDbCircle
 10
252.118943
 20
-68.536225
 40
0.5
100
AcDbArc
 50
190
 51
280
  0
ARC
  5
286
100
AcDbEntity
  8
0
  6
ByLayer
 62
  256
370
   -1
100
AcDbCircle
 10
264.921444
 20
-66.27879799999999
 40
0.5
100
AcDbArc
 50
280
 51
10
  0
ARC
  5
287
100
AcDbEntity
  8
0
  6
ByLayer
 62
  256
370
   -1
100
AcDbCircle
 10
262.664018
 20
-53.476298
 40
0.5
100
AcDbArc
 50
10
 51
100
  0
ARC
  5
288
100
AcDbEntity
  8
0
  6
ByLayer
 62
  256
370
   -1
100
AcDbCircle
 10
249.861517
 20
-55.733724
 40
0.5
100
AcDbArc
 50
100
 51
190
  0
LINE
  5
289
100
AcDbEntity
  8
0
  6
ByLayer
 62
  256
370
   -1
100
AcDbLine
 10
252.205767
 20
-69.028628
 11
265.008268
 21
-66.771202
  0
LINE
  5
28A
100
AcDbEntity
  8
0
  6
ByLayer
 62
  256
370
   -1
100
AcDbLine
 10
262.577194
 20
-52.983894
 11
249.774693
 21
-55.24132
  0
LINE
  5
28B
100
AcDbEntity
  8
0
  6
ByLayer
 62
  256
370
   -1
100
AcDbLine
 10
265.413848
 20
-66.191974
 11
263.156421
 21
-53.389473
  0
LINE
  5
28C
100
AcDbEntity
  8
0
  6
ByLayer
 62
  256
370
   -1
100
AcDbLine
 10
249.369113
 20
-55.820548
 11
251.626539
 21
-68.62304899999999
  0
ARC
  5
28D
100
AcDbEntity
  8
0
  6
ByLayer
 62
  256
370
   -1
100
AcDbCircle
 10
289.640118
 20
-61.920228
 40
0.5
100
AcDbArc
 50
190
 51
280
  0
ARC
  5
28E
100
AcDbEntity
  8
0
  6
ByLayer
 62
  256
370
   -1
100
AcDbCircle
 10
302.442619
 20
-59.662802
 40
0.5
100
AcDbArc
 50
280
 51
10
  0
ARC
  5
28F
100
AcDbEntity
  8
0
  6
ByLayer
 62
  256
370
   -1
100
AcDbCircle
 10
300.185193
 20
-46.860301
 40
0.5
100
AcDbArc
 50
10
 51
100
  0
ARC
  5
290
100
AcDbEntity
  8
0
  6
ByLayer
 62
  256
370
   -1
100
AcDbCircle
 10
287.382692
 20
-49.117727
 40
0.5
100
AcDbArc
 50
100
 51
190
  0
LINE
  5
291
100
AcDbEntity
  8
0
  6
ByLayer
 62
  256
370
   -1
100
AcDbLine
 10
289.726942
 20
-62.412632
 11
302.529443
 21
-60.155206
  0
LINE
  5
292
100
AcDbEntity
  8
0
  6
ByLayer
 62
  256
370
   -1
100
AcDbLine
 10
300.098369
 20
-46.367897
 11
287.295868
 21
-48.625323
  0
LINE
  5
293
100
AcDbEntity
  8
0
  6
ByLayer
 62
  256
370
   -1
100
AcDbLine
 10
302.935023
 20
-59.575978
 11
300.677597
 21
-46.773477
  0
LINE
  5
294
100
AcDbEntity
  8
0
  6
ByLayer
 62
  256
370
   -1
100
AcDbLine
 10
286.890288
 20
-49.204551
 11
289.147715
 21
-62.007052
  0
ARC
  5
295
100
AcDbEntity
  8
0
  6
ByLayer
 62
  256
370
   -1
100
AcDbCircle
 10
234.185355
 20
-76.534369
 40
0.5
100
AcDbArc
 50
190
 51
280
  0
ARC
  5
296
100
AcDbEntity
  8
0
  6
ByLayer
 62
  256
370
   -1
100
AcDbCircle
 10
246.987856
 20
-74.276943
 40
0.5
100
AcDbArc
 50
280
 51
10
  0
ARC
  5
297
100
AcDbEntity
  8
0
  6
ByLayer
 62
  256
370
   -1
100
AcDbCircle
 10
244.73043
 20
-61.474442
 40
0.5
100
AcDbArc
 50
10
 51
100
  0
ARC
  5
298
100
AcDbEntity
  8
0
  6
ByLayer
 62
  256
370
   -1
100
AcDbCircle
 10
231.927929
 20
-63.731868
 40
0.5
100
AcDbArc
 50
100
 51
190
  0
LINE
  5
299
100
AcDbEntity
  8
0
  6
ByLayer
 62
  256
370
   -1
100
AcDbLine
 10
234.272179
 20
-77.02677300000001
 11
247.07468
 21
-74.769347
  0
LINE
  5
29A
100
AcDbEntity
  8
0
  6
ByLayer
 62
  256
370
   -1
100
AcDbLine
 10
244.643606
 20
-60.982038
 11
231.841105
 21
-63.239464
  0
LINE
  5
29B
100
AcDbEntity
  8
0
  6
ByLayer
 62
  256
370
   -1
100
AcDbLine
 10
247.48026
 20
-74.190119
 11
245.222833
 21
-61.387618
  0
LINE
  5
29C
100
AcDbEntity
  8
0
  6
ByLayer
 62
  256
370
   -1
100
AcDbLine
 10
231.435525
 20
-63.818692
 11
233.692951
 21
-76.62119300000001
  0
ARC
  5
29D
100
AcDbEntity
  8
0
  6
ByLayer
 62
  256
370
   -1
100
AcDbCircle
 10
309.227706
 20
-63.302378
 40
0.5
100
AcDbArc
 50
190
 51
280
  0
ARC
  5
29E
100
AcDbEntity
  8
0
  6
ByLayer
 62
  256
370
   -1
100
AcDbCircle
 10
322.030206
 20
-61.044952
 40
0.5
100
AcDbArc
 50
280
 51
10
  0
ARC
  5
29F
100
AcDbEntity
  8
0
  6
ByLayer
 62
  256
370
   -1
100
AcDbCircle
 10
319.77278
 20
-48.242451
 40
0.5
100
AcDbArc
 50
10
 51
100
  0
ARC
  5
2A0
100
AcDbEntity
  8
0
  6
ByLayer
 62
  256
370
   -1
100
AcDbCircle
 10
306.970279
 20
-50.499877
 40
0.5
100
AcDbArc
 50
100
 51
190
  0
LINE
  5
2A1
100
AcDbEntity
  8
0
  6
ByLayer
 62
  256
370
   -1
100
AcDbLine
 10
309.31453
 20
-63.794782
 11
322.11703
 21
-61.537356
  0
LINE
  5
2A2
100
AcDbEntity
  8
0
  6
ByLayer
 62
  256
370
   -1
100
AcDbLine
 10
319.685956
 20
-47.750047
 11
306.883455
 21
-50.007473
  0
LINE
  5
2A3
100
AcDbEntity
  8
0
  6
ByLayer
 62
  256
370
   -1
100
AcDbLine
 10
322.52261
 20
-60.958128
 11
320.265184
 21
-48.155627
  0
LINE
  5
2A4
100
AcDbEntity
  8
0
  6
ByLayer
 62
  256
370
   -1
100
AcDbLine
 10
306.477875
 20
-50.586701
 11
308.735302
 21
-63.389202
  0
ARC
  5
2A5
100
AcDbEntity
  8
0
  6
ByLayer
 62
  256
370
   -1
100
AcDbCircle
 10
327.988294
 20
-59.99438
 40
0.5
100
AcDbArc
 50
190
 51
280
  0
ARC
  5
2A6
100
AcDbEntity
  8
0
  6
ByLayer
 62
  256
370
   -1
100
AcDbCircle
 10
340.790795
 20
-57.736953
 40
0.5
100
AcDbArc
 50
280
 51
10
  0
ARC
  5
2A7
100
AcDbEntity
  8
0
  6
ByLayer
 62
  256
370
   -1
100
AcDbCircle
 10
338.533369
 20
-44.934453
 40
0.5
100
AcDbArc
 50
10
 51
100
  0
ARC
  5
2A8
100
AcDbEntity
  8
0
  6
ByLayer
 62
  256
370
   -1
100
AcDbCircle
 10
325.730868
 20
-47.191879
 40
0.5
100
AcDbArc
 50
100
 51
190
  0
LINE
  5
2A9
100
AcDbEntity
  8
0
  6
ByLayer
 62
  256
370
   -1
100
AcDbLine
 10
328.075118
 20
-60.486784
 11
340.877619
 21
-58.229357
  0
LINE
  5
2AA
100
AcDbEntity
  8
0
  6
ByLayer
 62
  256
370
   -1
100
AcDbLine
 10
338.446545
 20
-44.442049
 11
325.644044
 21
-46.699475
  0
LINE
  5
2AB
100
AcDbEntity
  8
0
  6
ByLayer
 62
  256
370
   -1
100
AcDbLine
 10
341.283199
 20
-57.650129
 11
339.025773
 21
-44.847629
  0
LINE
  5
2AC
100
AcDbEntity
  8
0
  6
ByLayer
 62
  256
370
   -1
100
AcDbLine
 10
325.238464
 20
-47.278703
 11
327.49589
 21
-60.081204
  0
ARC
  5
2AD
100
AcDbEntity
  8
0
  6
ByLayer
 62
  256
370
   -1
100
AcDbCircle
 10
273.360529
 20
-79.29866699999999
 40
0.5
100
AcDbArc
 50
190
 51
280
  0
ARC
  5
2AE
100
AcDbEntity
  8
0
  6
ByLayer
 62
  256
370
   -1
100
AcDbCircle
 10
286.16303
 20
-77.041241
 40
0.5
100
AcDbArc
 50
280
 51
10
  0
ARC
  5
2AF
100
AcDbEntity
  8
0
  6
ByLayer
 62
  256
370
   -1
100
AcDbCircle
 10
283.905604
 20
-64.23874000000001
 40
0.5
100
AcDbArc
 50
10
 51
100
  0
ARC
  5
2B0
100
AcDbEntity
  8
0
  6
ByLayer
 62
  256
370
   -1
100
AcDbCircle
 10
271.103103
 20
-66.496166
 40
0.5
100
AcDbArc
 50
100
 51
190
  0
LINE
  5
2B1
100
AcDbEntity
  8
0
  6
ByLayer
 62
  256
370
   -1
100
AcDbLine
 10
273.447353
 20
-79.791071
 11
286.249854
 21
-77.533644
  0
LINE
  5
2B2
100
AcDbEntity
  8
0
  6
ByLayer
 62
  256
370
   -1
100
AcDbLine
 10
283.81878
 20
-63.746336
 11
271.016279
 21
-66.00376199999999
  0
LINE
  5
2B3
100
AcDbEntity
  8
0
  6
ByLayer
 62
  256
370
   -1
100
AcDbLine
 10
286.655434
 20
-76.95441700000001
 11
284.398008
 21
-64.151916
  0
LINE
  5
2B4
100
AcDbEntity
  8
0
  6
ByLayer
 62
  256
370
   -1
100
AcDbLine
 10
270.610699
 20
-66.58299
 11
272.868126
 21
-79.385491
  0
ARC
  5
2B5
100
AcDbEntity
  8
0
  6
ByLayer
 62
  256
370
   -1
100
AcDbCircle
 10
255.426941
 20
-87.29681100000001
 40
0.5
100
AcDbArc
 50
190
 51
280
  0
ARC
  5
2B6
100
AcDbEntity
  8
0
  6
ByLayer
 62
  256
370
   -1
100
AcDbCircle
 10
268.229442
 20
-85.039385
 40
0.5
100
AcDbArc
 50
280
 51
10
  0
ARC
  5
2B7
100
AcDbEntity
  8
0
  6
ByLayer
 62
  256
370
   -1
100
AcDbCircle
 10
265.972016
 20
-72.236884
 40
0.5
100
AcDbArc
 50
10
 51
100
  0
ARC
  5
2B8
100
AcDbEntity
  8
0
  6
ByLayer
 62
  256
370
   -1
100
AcDbCircle
 10
253.169515
 20
-74.494311
 40
0.5
100
AcDbArc
 50
100
 51
190
  0
LINE
  5
2B9
100
AcDbEntity
  8
0
  6
ByLayer
 62
  256
370
   -1
100
AcDbLine
 10
255.513765
 20
-87.789215
 11
268.316266
 21
-85.531789
  0
LINE
  5
2BA
100
AcDbEntity
  8
0
  6
ByLayer
 62
  256
370
   -1
100
AcDbLine
 10
265.885192
 20
-71.74448
 11
253.082691
 21
-74.001907
  0
LINE
  5
2BB
100
AcDbEntity
  8
0
  6
ByLayer
 62
  256
370
   -1
100
AcDbLine
 10
268.721846
 20
-84.952561
 11
266.46442
 21
-72.15006
  0
LINE
  5
2BC
100
AcDbEntity
  8
0
  6
ByLayer
 62
  256
370
   -1
100
AcDbLine
 10
252.677111
 20
-74.581135
 11
254.934538
 21
-87.383635
  0
ARC
  5
2BD
100
AcDbEntity
  8
0
  6
ByLayer
 62
  256
370
   -1
100
AcDbCircle
 10
292.948117
 20
-80.680817
 40
0.5
100
AcDbArc
 50
190
 51
280
  0
ARC
  5
2BE
100
AcDbEntity
  8
0
  6
ByLayer
 62
  256
370
   -1
100
AcDbCircle
 10
305.750617
 20
-78.42339
 40
0.5
100
AcDbArc
 50
280
 51
10
  0
ARC
  5
2BF
100
AcDbEntity
  8
0
  6
ByLayer
 62
  256
370
   -1
100
AcDbCircle
 10
303.493191
 20
-65.62089
 40
0.5
100
AcDbArc
 50
10
 51
100
  0
ARC
  5
2C0
100
AcDbEntity
  8
0
  6
ByLayer
 62
  256
370
   -1
100
AcDbCircle
 10
290.69069
 20
-67.878316
 40
0.5
100
AcDbArc
 50
100
 51
190
  0
LINE
  5
2C1
100
AcDbEntity
  8
0
  6
ByLayer
 62
  256
370
   -1
100
AcDbLine
 10
293.034941
 20
-81.173221
 11
305.837441
 21
-78.91579400000001
  0
LINE
  5
2C2
100
AcDbEntity
  8
0
  6
ByLayer
 62
  256
370
   -1
100
AcDbLine
 10
303.406367
 20
-65.128486
 11
290.603866
 21
-67.385912
  0
LINE
  5
2C3
100
AcDbEntity
  8
0
  6
ByLayer
 62
  256
370
   -1
100
AcDbLine
 10
306.243021
 20
-78.336566
 11
303.985595
 21
-65.534066
  0
LINE
  5
2C4
100
AcDbEntity
  8
0
  6
ByLayer
 62
  256
370
   -1
100
AcDbLine
 10
290.198286
 20
-67.96514000000001
 11
292.455713
 21
-80.767641
  0
ARC
  5
2C5
100
AcDbEntity
  8
0
  6
ByLayer
 62
  256
370
   -1
100
AcDbCircle
 10
237.493353
 20
-95.294956
 40
0.5
100
AcDbArc
 50
190
 51
280
  0
ARC
  5
2C6
100
AcDbEntity
  8
0
  6
ByLayer
 62
  256
370
   -1
100
AcDbCircle
 10
250.295854
 20
-93.03752900000001
 40
0.5
100
AcDbArc
 50
280
 51
10
  0
ARC
  5
2C7
100
AcDbEntity
  8
0
  6
ByLayer
 62
  256
370
   -1
100
AcDbCircle
 10
248.038428
 20
-80.235029
 40
0.5
100
AcDbArc
 50
10
 51
100
  0
ARC
  5
2C8
100
AcDbEntity
  8
0
  6
ByLayer
 62
  256
370
   -1
100
AcDbCircle
 10
235.235927
 20
-82.49245500000001
 40
0.5
100
AcDbArc
 50
100
 51
190
  0
LINE
  5
2C9
100
AcDbEntity
  8
0
  6
ByLayer
 62
  256
370
   -1
100
AcDbLine
 10
237.580177
 20
-95.78736000000001
 11
250.382678
 21
-93.529933
  0
LINE
  5
2CA
100
AcDbEntity
  8
0
  6
ByLayer
 62
  256
370
   -1
100
AcDbLine
 10
247.951604
 20
-79.742625
 11
235.149103
 21
-82.000051
  0
LINE
  5
2CB
100
AcDbEntity
  8
0
  6
ByLayer
 62
  256
370
   -1
100
AcDbLine
 10
250.788258
 20
-92.950705
 11
248.530832
 21
-80.148205
  0
LINE
  5
2CC
100
AcDbEntity
  8
0
  6
ByLayer
 62
  256
370
   -1
100
AcDbLine
 10
234.743523
 20
-82.579279
 11
237.000949
 21
-95.38178000000001
  0
ARC
  5
2CD
100
AcDbEntity
  8
0
  6
ByLayer
 62
  256
370
   -1
100
AcDbCircle
 10
312.535704
 20
-82.06296500000001
 40
0.5
100
AcDbArc
 50
190
 51
280
  0
ARC
  5
2CE
100
AcDbEntity
  8
0
  6
ByLayer
 62
  256
370
   -1
100
AcDbCircle
 10
325.338205
 20
-79.805538
 40
0.5
100
AcDbArc
 50
280
 51
10
  0
ARC
  5
2CF
100
AcDbEntity
  8
0
  6
ByLayer
 62
  256
370
   -1
100
AcDbCircle
 10
323.080778
 20
-67.003038
 40
0.5
100
AcDbArc
 50
10
 51
100
  0
ARC
  5
2D0
100
AcDbEntity
  8
0
  6
ByLayer
 62
  256
370
   -1
100
AcDbCircle
 10
310.278278
 20
-69.260464
 40
0.5
100
AcDbArc
 50
100
 51
190
  0
LINE
  5
2D1
100
AcDbEntity
  8
0
  6
ByLayer
 62
  256
370
   -1
100
AcDbLine
 10
312.622528
 20
-82.555369
 11
325.425029
 21
-80.29794200000001
  0
LINE
  5
2D2
100
AcDbEntity
  8
0
  6
ByLayer
 62
  256
370
   -1
100
AcDbLine
 10
322.993954
 20
-66.510634
 11
310.191453
 21
-68.76806000000001
  0
LINE
  5
2D3
100
AcDbEntity
  8
0
  6
ByLayer
 62
  256
370
   -1
100
AcDbLine
 10
325.830608
 20
-79.71871400000001
 11
323.573182
 21
-66.916214
  0
LINE
  5
2D4
100
AcDbEntity
  8
0
  6
ByLayer
 62
  256
370
   -1
100
AcDbLine
 10
309.785874
 20
-69.34728800000001
 11
312.0433
 21
-82.149789
  0
ARC
  5
2D5
100
AcDbEntity
  8
0
  6
ByLayer
 62
  256
370
   -1
100
AcDbCircle
 10
335.986439
 20
-77.92796800000001
 40
0.5
100
AcDbArc
 50
190
 51
280
  0
ARC
  5
2D6
100
AcDbEntity
  8
0
  6
ByLayer
 62
  256
370
   -1
100
AcDbCircle
 10
348.788939
 20
-75.670542
 40
0.5
100
AcDbArc
 50
280
 51
10
  0
ARC
  5
2D7
100
AcDbEntity
  8
0
  6
ByLayer
 62
  256
370
   -1
100
AcDbCircle
 10
346.531513
 20
-62.868041
 40
0.5
100
AcDbArc
 50
10
 51
100
  0
ARC
  5
2D8
100
AcDbEntity
  8
0
  6
ByLayer
 62
  256
370
   -1
100
AcDbCircle
 10
333.729012
 20
-65.125467
 40
0.5
100
AcDbArc
 50
100
 51
190
  0
LINE
  5
2D9
100
AcDbEntity
  8
0
  6
ByLayer
 62
  256
370
   -1
100
AcDbLine
 10
336.073263
 20
-78.420372
 11
348.875763
 21
-76.16294499999999
  0
LINE
  5
2DA
100
AcDbEntity
  8
0
  6
ByLayer
 62
  256
370
   -1
100
AcDbLine
 10
346.444689
 20
-62.375637
 11
333.642188
 21
-64.63306300000001
  0
LINE
  5
2DB
100
AcDbEntity
  8
0
  6
ByLayer
 62
  256
370
   -1
100
AcDbLine
 10
349.281343
 20
-75.583718
 11
347.023917
 21
-62.781217
  0
LINE
  5
2DC
100
AcDbEntity
  8
0
  6
ByLayer
 62
  256
370
   -1
100
AcDbLine
 10
333.236608
 20
-65.21229099999999
 11
335.494035
 21
-78.014792
  0
ARC
  5
2DD
100
AcDbEntity
  8
0
  6
ByLayer
 62
  256
370
   -1
100
AcDbCircle
 10
276.668528
 20
-98.05925499999999
 40
0.5
100
AcDbArc
 50
190
 51
280
  0
ARC
  5
2DE
100
AcDbEntity
  8
0
  6
ByLayer
 62
  256
370
   -1
100
AcDbCircle
 10
289.471028
 20
-95.801829
 40
0.5
100
AcDbArc
 50
280
 51
10
  0
ARC
  5
2DF
100
AcDbEntity
  8
0
  6
ByLayer
 62
  256
370
   -1
100
AcDbCircle
 10
287.213602
 20
-82.99932800000001
 40
0.5
100
AcDbArc
 50
10
 51
100
  0
ARC
  5
2E0
100
AcDbEntity
  8
0
  6
ByLayer
 62
  256
370
   -1
100
AcDbCircle
 10
274.411101
 20
-85.256755
 40
0.5
100
AcDbArc
 50
100
 51
190
  0
LINE
  5
2E1
100
AcDbEntity
  8
0
  6
ByLayer
 62
  256
370
   -1
100
AcDbLine
 10
276.755352
 20
-98.551659
 11
289.557852
 21
-96.29423300000001
  0
LINE
  5
2E2
100
AcDbEntity
  8
0
  6
ByLayer
 62
  256
370
   -1
100
AcDbLine
 10
287.126778
 20
-82.506924
 11
274.324277
 21
-84.764351
  0
LINE
  5
2E3
100
AcDbEntity
  8
0
  6
ByLayer
 62
  256
370
   -1
100
AcDbLine
 10
289.963432
 20
-95.715005
 11
287.706006
 21
-82.912504
  0
LINE
  5
2E4
100
AcDbEntity
  8
0
  6
ByLayer
 62
  256
370
   -1
100
AcDbLine
 10
273.918697
 20
-85.34357900000001
 11
276.176124
 21
-98.146079
  0
ARC
  5
2E5
100
AcDbEntity
  8
0
  6
ByLayer
 62
  256
370
   -1
100
AcDbCircle
 10
258.73494
 20
-106.0574
 40
0.5
100
AcDbArc
 50
190
 51
280
  0
ARC
  5
2E6
100
AcDbEntity
  8
0
  6
ByLayer
 62
  256
370
   -1
100
AcDbCircle
 10
271.53744
 20
-103.799973
 40
0.5
100
AcDbArc
 50
280
 51
10
  0
ARC
  5
2E7
100
AcDbEntity
  8
0
  6
ByLayer
 62
  256
370
   -1
100
AcDbCircle
 10
269.280014
 20
-90.997473
 40
0.5
100
AcDbArc
 50
10
 51
100
  0
ARC
  5
2E8
100
AcDbEntity
  8
0
  6
ByLayer
 62
  256
370
   -1
100
AcDbCircle
 10
256.477513
 20
-93.25489899999999
 40
0.5
100
AcDbArc
 50
100
 51
190
  0
LINE
  5
2E9
100
AcDbEntity
  8
0
  6
ByLayer
 62
  256
370
   -1
100
AcDbLine
 10
258.821764
 20
-106.549804
 11
271.624264
 21
-104.292377
  0
LINE
  5
2EA
100
AcDbEntity
  8
0
  6
ByLayer
 62
  256
370
   -1
100
AcDbLine
 10
269.19319
 20
-90.50506900000001
 11
256.390689
 21
-92.762495
  0
LINE
  5
2EB
100
AcDbEntity
  8
0
  6
ByLayer
 62
  256
370
   -1
100
AcDbLine
 10
272.029844
 20
-103.713149
 11
269.772418
 21
-90.91064900000001
  0
LINE
  5
2EC
100
AcDbEntity
  8
0
  6
ByLayer
 62
  256
370
   -1
100
AcDbLine
 10
255.985109
 20
-93.341723
 11
258.242536
 21
-106.144224
  0
ARC
  5
2ED
100
AcDbEntity
  8
0
  6
ByLayer
 62
  256
370
   -1
100
AcDbCircle
 10
296.256115
 20
-99.44140299999999
 40
0.5
100
AcDbArc
 50
190
 51
280
  0
ARC
  5
2EE
100
AcDbEntity
  8
0
  6
ByLayer
 62
  256
370
   -1
100
AcDbCircle
 10
309.058616
 20
-97.183977
 40
0.5
100
AcDbArc
 50
280
 51
10
  0
ARC
  5
2EF
100
AcDbEntity
  8
0
  6
ByLayer
 62
  256
370
   -1
100
AcDbCircle
 10
306.801189
 20
-84.38147600000001
 40
0.5
100
AcDbArc
 50
10
 51
100
  0
ARC
  5
2F0
100
AcDbEntity
  8
0
  6
ByLayer
 62
  256
370
   -1
100
AcDbCircle
 10
293.998689
 20
-86.638903
 40
0.5
100
AcDbArc
 50
100
 51
190
  0
LINE
  5
2F1
100
AcDbEntity
  8
0
  6
ByLayer
 62
  256
370
   -1
100
AcDbLine
 10
296.342939
 20
-99.933807
 11
309.14544
 21
-97.67638100000001
  0
LINE
  5
2F2
100
AcDbEntity
  8
0
  6
ByLayer
 62
  256
370
   -1
100
AcDbLine
 10
306.714365
 20
-83.889072
 11
293.911864
 21
-86.14649900000001
  0
LINE
  5
2F3
100
AcDbEntity
  8
0
  6
ByLayer
 62
  256
370
   -1
100
AcDbLine
 10
309.551019
 20
-97.09715300000001
 11
307.293593
 21
-84.294652
  0
LINE
  5
2F4
100
AcDbEntity
  8
0
  6
ByLayer
 62
  256
370
   -1
100
AcDbLine
 10
293.506285
 20
-86.72572700000001
 11
295.763711
 21
-99.528227
  0
ARC
  5
2F5
100
AcDbEntity
  8
0
  6
ByLayer
 62
  256
370
   -1
100
AcDbCircle
 10
240.801352
 20
-114.055544
 40
0.5
100
AcDbArc
 50
190
 51
280
  0
ARC
  5
2F6
100
AcDbEntity
  8
0
  6
ByLayer
 62
  256
370
   -1
100
AcDbCircle
 10
253.603852
 20
-111.798118
 40
0.5
100
AcDbArc
 50
280
 51
10
  0
ARC
  5
2F7
100
AcDbEntity
  8
0
  6
ByLayer
 62
  256
370
   -1
100
AcDbCircle
 10
251.346426
 20
-98.995617
 40
0.5
100
AcDbArc
 50
10
 51
100
  0
ARC
  5
2F8
100
AcDbEntity
  8
0
  6
ByLayer
 62
  256
370
   -1
100
AcDbCircle
 10
238.543925
 20
-101.253044
 40
0.5
100
AcDbArc
 50
100
 51
190
  0
LINE
  5
2F9
100
AcDbEntity
  8
0
  6
ByLayer
 62
  256
370
   -1
100
AcDbLine
 10
240.888176
 20
-114.547948
 11
253.690676
 21
-112.290522
  0
LINE
  5
2FA
100
AcDbEntity
  8
0
  6
ByLayer
 62
  256
370
   -1
100
AcDbLine
 10
251.259602
 20
-98.503213
 11
238.457101
 21
-100.76064
  0
LINE
  5
2FB
100
AcDbEntity
  8
0
  6
ByLayer
 62
  256
370
   -1
100
AcDbLine
 10
254.096256
 20
-111.711294
 11
251.83883
 21
-98.908793
  0
LINE
  5
2FC
100
AcDbEntity
  8
0
  6
ByLayer
 62
  256
370
   -1
100
AcDbLine
 10
238.051521
 20
-101.339868
 11
240.308948
 21
-114.142368
  0
ARC
  5
2FD
100
AcDbEntity
  8
0
  6
ByLayer
 62
  256
370
   -1
100
AcDbCircle
 10
315.843702
 20
-100.823553
 40
0.5
100
AcDbArc
 50
190
 51
280
  0
ARC
  5
2FE
100
AcDbEntity
  8
0
  6
ByLayer
 62
  256
370
   -1
100
AcDbCircle
 10
328.646203
 20
-98.56612699999999
 40
0.5
100
AcDbArc
 50
280
 51
10
  0
ARC
  5
2FF
100
AcDbEntity
  8
0
  6
ByLayer
 62
  256
370
   -1
100
AcDbCircle
 10
326.388776
 20
-85.763626
 40
0.5
100
AcDbArc
 50
10
 51
100
  0
ARC
  5
300
100
AcDbEntity
  8
0
  6
ByLayer
 62
  256
370
   -1
100
AcDbCircle
 10
313.586276
 20
-88.02105299999999
 40
0.5
100
AcDbArc
 50
100
 51
190
  0
LINE
  5
301
100
AcDbEntity
  8
0
  6
ByLayer
 62
  256
370
   -1
100
AcDbLine
 10
315.930526
 20
-101.315957
 11
328.733027
 21
-99.058531
  0
LINE
  5
302
100
AcDbEntity
  8
0
  6
ByLayer
 62
  256
370
   -1
100
AcDbLine
 10
326.301952
 20
-85.27122199999999
 11
313.499452
 21
-87.528649
  0
LINE
  5
303
100
AcDbEntity
  8
0
  6
ByLayer
 62
  256
370
   -1
100
AcDbLine
 10
329.138607
 20
-98.479303
 11
326.88118
 21
-85.676802
  0
LINE
  5
304
100
AcDbEntity
  8
0
  6
ByLayer
 62
  256
370
   -1
100
AcDbLine
 10
313.093872
 20
-88.107877
 11
315.351298
 21
-100.910377
  0
ARC
  5
305
100
AcDbEntity
  8
0
  6
ByLayer
 62
  256
370
   -1
100
AcDbCircle
 10
336.949363
 20
-97.102056
 40
0.5
100
AcDbArc
 50
190
 51
280
  0
ARC
  5
306
100
AcDbEntity
  8
0
  6
ByLayer
 62
  256
370
   -1
100
AcDbCircle
 10
349.751864
 20
-94.844629
 40
0.5
100
AcDbArc
 50
280
 51
10
  0
ARC
  5
307
100
AcDbEntity
  8
0
  6
ByLayer
 62
  256
370
   -1
100
AcDbCircle
 10
347.494437
 20
-82.042129
 40
0.5
100
AcDbArc
 50
10
 51
100
  0
ARC
  5
308
100
AcDbEntity
  8
0
  6
ByLayer
 62
  256
370
   -1
100
AcDbCircle
 10
334.691937
 20
-84.299555
 40
0.5
100
AcDbArc
 50
100
 51
190
  0
LINE
  5
309
100
AcDbEntity
  8
0
  6
ByLayer
 62
  256
370
   -1
100
AcDbLine
 10
337.036187
 20
-97.59446
 11
349.838688
 21
-95.33703300000001
  0
LINE
  5
30A
100
AcDbEntity
  8
0
  6
ByLayer
 62
  256
370
   -1
100
AcDbLine
 10
347.407613
 20
-81.549725
 11
334.605112
 21
-83.807151
  0
LINE
  5
30B
100
AcDbEntity
  8
0
  6
ByLayer
 62
  256
370
   -1
100
AcDbLine
 10
350.244267
 20
-94.757805
 11
347.986841
 21
-81.955305
  0
LINE
  5
30C
100
AcDbEntity
  8
0
  6
ByLayer
 62
  256
370
   -1
100
AcDbLine
 10
334.199533
 20
-84.38637900000001
 11
336.456959
 21
-97.18888
  0
ARC
  5
30D
100
AcDbEntity
  8
0
  6
ByLayer
 62
  256
370
   -1
100
AcDbCircle
 10
169.758072
 20
-136.25433
 40
0.5
100
AcDbArc
 50
190
 51
280
  0
ARC
  5
30E
100
AcDbEntity
  8
0
  6
ByLayer
 62
  256
370
   -1
100
AcDbCircle
 10
182.560573
 20
-133.996904
 40
0.5
100
AcDbArc
 50
280
 51
10
  0
ARC
  5
30F
100
AcDbEntity
  8
0
  6
ByLayer
 62
  256
370
   -1
100
AcDbCircle
 10
180.303147
 20
-121.194403
 40
0.5
100
AcDbArc
 50
10
 51
100
  0
ARC
  5
310
100
AcDbEntity
  8
0
  6
ByLayer
 62
  256
370
   -1
100
AcDbCircle
 10
167.500646
 20
-123.451829
 40
0.5
100
AcDbArc
 50
100
 51
190
  0
LINE
  5
311
100
AcDbEntity
  8
0
  6
ByLayer
 62
  256
370
   -1
100
AcDbLine
 10
169.844896
 20
-136.746734
 11
182.647397
 21
-134.489308
  0
LINE
  5
312
100
AcDbEntity
  8
0
  6
ByLayer
 62
  256
370
   -1
100
AcDbLine
 10
180.216323
 20
-120.701999
 11
167.413822
 21
-122.959426
  0
LINE
  5
313
100
AcDbEntity
  8
0
  6
ByLayer
 62
  256
370
   -1
100
AcDbLine
 10
183.052977
 20
-133.91008
 11
180.795551
 21
-121.107579
  0
LINE
  5
314
100
AcDbEntity
  8
0
  6
ByLayer
 62
  256
370
   -1
100
AcDbLine
 10
167.008242
 20
-123.538653
 11
169.265668
 21
-136.341154
  0
ARC
  5
315
100
AcDbEntity
  8
0
  6
ByLayer
 62
  256
370
   -1
100
AcDbCircle
 10
279.976526
 20
-116.819842
 40
0.5
100
AcDbArc
 50
190
 51
280
  0
ARC
  5
316
100
AcDbEntity
  8
0
  6
ByLayer
 62
  256
370
   -1
100
AcDbCircle
 10
292.779027
 20
-114.562416
 40
0.5
100
AcDbArc
 50
280
 51
10
  0
ARC
  5
317
100
AcDbEntity
  8
0
  6
ByLayer
 62
  256
370
   -1
100
AcDbCircle
 10
290.5216
 20
-101.759915
 40
0.5
100
AcDbArc
 50
10
 51
100
  0
ARC
  5
318
100
AcDbEntity
  8
0
  6
ByLayer
 62
  256
370
   -1
100
AcDbCircle
 10
277.7191
 20
-104.017341
 40
0.5
100
AcDbArc
 50
100
 51
190
  0
LINE
  5
319
100
AcDbEntity
  8
0
  6
ByLayer
 62
  256
370
   -1
100
AcDbLine
 10
280.06335
 20
-117.312246
 11
292.865851
 21
-115.05482
  0
LINE
  5
31A
100
AcDbEntity
  8
0
  6
ByLayer
 62
  256
370
   -1
100
AcDbLine
 10
290.434776
 20
-101.267511
 11
277.632276
 21
-103.524937
  0
LINE
  5
31B
100
AcDbEntity
  8
0
  6
ByLayer
 62
  256
370
   -1
100
AcDbLine
 10
293.271431
 20
-114.475592
 11
291.014004
 21
-101.673091
  0
LINE
  5
31C
100
AcDbEntity
  8
0
  6
ByLayer
 62
  256
370
   -1
100
AcDbLine
 10
277.226696
 20
-104.104165
 11
279.484122
 21
-116.906666
  0
ARC
  5
31D
100
AcDbEntity
  8
0
  6
ByLayer
 62
  256
370
   -1
100
AcDbCircle
 10
262.042938
 20
-124.817986
 40
0.5
100
AcDbArc
 50
190
 51
280
  0
ARC
  5
31E
100
AcDbEntity
  8
0
  6
ByLayer
 62
  256
370
   -1
100
AcDbCircle
 10
274.845439
 20
-122.56056
 40
0.5
100
AcDbArc
 50
280
 51
10
  0
ARC
  5
31F
100
AcDbEntity
  8
0
  6
ByLayer
 62
  256
370
   -1
100
AcDbCircle
 10
272.588012
 20
-109.758059
 40
0.5
100
AcDbArc
 50
10
 51
100
  0
ARC
  5
320
100
AcDbEntity
  8
0
  6
ByLayer
 62
  256
370
   -1
100
AcDbCircle
 10
259.785512
 20
-112.015486
 40
0.5
100
AcDbArc
 50
100
 51
190
  0
LINE
  5
321
100
AcDbEntity
  8
0
  6
ByLayer
 62
  256
370
   -1
100
AcDbLine
 10
262.129762
 20
-125.31039
 11
274.932263
 21
-123.052964
  0
LINE
  5
322
100
AcDbEntity
  8
0
  6
ByLayer
 62
  256
370
   -1
100
AcDbLine
 10
272.501188
 20
-109.265656
 11
259.698687
 21
-111.523082
  0
LINE
  5
323
100
AcDbEntity
  8
0
  6
ByLayer
 62
  256
370
   -1
100
AcDbLine
 10
275.337842
 20
-122.473736
 11
273.080416
 21
-109.671235
  0
LINE
  5
324
100
AcDbEntity
  8
0
  6
ByLayer
 62
  256
370
   -1
100
AcDbLine
 10
259.293108
 20
-112.10231
 11
261.550534
 21
-124.904811
  0
ARC
  5
325
100
AcDbEntity
  8
0
  6
ByLayer
 62
  256
370
   -1
100
AcDbCircle
 10
299.564113
 20
-118.201992
 40
0.5
100
AcDbArc
 50
190
 51
280
  0
ARC
  5
326
100
AcDbEntity
  8
0
  6
ByLayer
 62
  256
370
   -1
100
AcDbCircle
 10
312.366614
 20
-115.944566
 40
0.5
100
AcDbArc
 50
280
 51
10
  0
ARC
  5
327
100
AcDbEntity
  8
0
  6
ByLayer
 62
  256
370
   -1
100
AcDbCircle
 10
310.109187
 20
-103.142065
 40
0.5
100
AcDbArc
 50
10
 51
100
  0
ARC
  5
328
100
AcDbEntity
  8
0
  6
ByLayer
 62
  256
370
   -1
100
AcDbCircle
 10
297.306687
 20
-105.399491
 40
0.5
100
AcDbArc
 50
100
 51
190
  0
LINE
  5
329
100
AcDbEntity
  8
0
  6
ByLayer
 62
  256
370
   -1
100
AcDbLine
 10
299.650937
 20
-118.694396
 11
312.453438
 21
-116.43697
  0
LINE
  5
32A
100
AcDbEntity
  8
0
  6
ByLayer
 62
  256
370
   -1
100
AcDbLine
 10
310.022363
 20
-102.649661
 11
297.219863
 21
-104.907087
  0
LINE
  5
32B
100
AcDbEntity
  8
0
  6
ByLayer
 62
  256
370
   -1
100
AcDbLine
 10
312.859018
 20
-115.857742
 11
310.601591
 21
-103.055241
  0
LINE
  5
32C
100
AcDbEntity
  8
0
  6
ByLayer
 62
  256
370
   -1
100
AcDbLine
 10
296.814283
 20
-105.486315
 11
299.071709
 21
-118.288816
  0
ARC
  5
32D
100
AcDbEntity
  8
0
  6
ByLayer
 62
  256
370
   -1
100
AcDbCircle
 10
321.496772
 20
-119.170641
 40
0.5
100
AcDbArc
 50
190
 51
280
  0
ARC
  5
32E
100
AcDbEntity
  8
0
  6
ByLayer
 62
  256
370
   -1
100
AcDbCircle
 10
334.299273
 20
-116.913214
 40
0.5
100
AcDbArc
 50
280
 51
10
  0
ARC
  5
32F
100
AcDbEntity
  8
0
  6
ByLayer
 62
  256
370
   -1
100
AcDbCircle
 10
332.041847
 20
-104.110714
 40
0.5
100
AcDbArc
 50
10
 51
100
  0
ARC
  5
330
100
AcDbEntity
  8
0
  6
ByLayer
 62
  256
370
   -1
100
AcDbCircle
 10
319.239346
 20
-106.36814
 40
0.5
100
AcDbArc
 50
100
 51
190
  0
LINE
  5
331
100
AcDbEntity
  8
0
  6
ByLayer
 62
  256
370
   -1
100
AcDbLine
 10
321.583596
 20
-119.663045
 11
334.386097
 21
-117.405618
  0
LINE
  5
332
100
AcDbEntity
  8
0
  6
ByLayer
 62
  256
370
   -1
100
AcDbLine
 10
331.955023
 20
-103.61831
 11
319.152522
 21
-105.875736
  0
LINE
  5
333
100
AcDbEntity
  8
0
  6
ByLayer
 62
  256
370
   -1
100
AcDbLine
 10
334.791677
 20
-116.82639
 11
332.534251
 21
-104.02389
  0
LINE
  5
334
100
AcDbEntity
  8
0
  6
ByLayer
 62
  256
370
   -1
100
AcDbLine
 10
318.746942
 20
-106.454964
 11
321.004369
 21
-119.257465
  0
LWPOLYLINE
  5
335
100
AcDbEntity
  8
0
  6
ByLayer
 62
  256
370
   -1
100
AcDbPolyline
 90
    4
 70
    1
 43
0
 10
-10
 20
10
 10
426
 20
10
 10
426
 20
-150
 10
-10
 20
-150
  0
ENDSEC
  0
SECTION
  2
OBJECTS
  0
DICTIONARY
  5
C
330
0
100
AcDbDictionary
281
    1
  3
ACAD_GROUP
350
D
  0
DICTIONARY
  5
D
330
C
100
AcDbDictionary
281
    1
  0
ENDSEC
  0
EOF
